<svg id="图层_1" data-name="图层 1" xmlns="http://www.w3.org/2000/svg" viewBox="0 0 99.21 99.21">
  <defs>
    <style>
      .cls-1 {
        fill: #d1d1d1;
      }

      .cls-1, .cls-2 {
        stroke: #373737;
        stroke-linecap: round;
        stroke-linejoin: round;
        stroke-width: 1.5px;
      }

      .cls-2 {
        fill: #fff;
      }

      .cls-3 {
        fill: none;
      }
    </style>
  </defs>
  <g>
    <polygon class="cls-1" points="77.76 70.59 40.48 57.35 40.48 26.67 77.76 39.91 77.76 70.59"/>
    <polygon class="cls-2" points="77.72 70.41 58.6 83.83 58.6 53.25 77.72 39.84 77.72 70.41"/>
    <polygon class="cls-1" points="40.56 57.02 21.44 70.43 21.44 39.85 40.56 26.44 40.56 57.02"/>
    <polygon class="cls-2" points="58.68 83.86 21.41 70.62 21.41 39.94 58.68 53.17 58.68 83.86"/>
    <polygon class="cls-2" points="58.69 53.35 21.41 40.11 29.42 30.31 66.7 43.55 58.69 53.35"/>
    <polygon class="cls-1" points="77.81 39.97 40.53 26.73 35.74 15.35 73.02 28.59 77.81 39.97"/>
  </g>
  <rect class="cls-3" width="99.21" height="99.21"/>
</svg>
