<svg id="图层_1" data-name="图层 1" xmlns="http://www.w3.org/2000/svg" viewBox="0 0 233.34 99.21">
  <defs>
    <style>
      .cls-1, .cls-11, .cls-12, .cls-4, .cls-5, .cls-6, .cls-8 {
        fill: none;
      }

      .cls-2, .cls-9 {
        fill: #ededec;
      }

      .cls-3 {
        fill: #e2e2e1;
      }

      .cls-11, .cls-12, .cls-4, .cls-5, .cls-6, .cls-8 {
        stroke: #373737;
        stroke-linecap: round;
        stroke-linejoin: round;
        stroke-width: 0.75px;
      }

      .cls-5 {
        stroke-dasharray: 1.94 1.94;
      }

      .cls-6 {
        stroke-dasharray: 2.11 2.11;
      }

      .cls-7 {
        font-size: 5.72px;
      }

      .cls-10, .cls-7 {
        fill: #231815;
        font-family: FZLTZHJW--GB1-0, FZLanTingHeiS-DB-GB;
      }

      .cls-8 {
        stroke-dasharray: 1.99 1.99;
      }

      .cls-9 {
        stroke: #fff;
        stroke-miterlimit: 10;
        stroke-width: 0.5px;
      }

      .cls-10 {
        font-size: 3.79px;
      }

      .cls-11 {
        stroke-dasharray: 1.96 1.96;
      }

      .cls-12 {
        stroke-dasharray: 1.93 1.93;
      }
    </style>
  </defs>
  <rect class="cls-1" width="198.43" height="99.21"/>
  <g>
    <polygon class="cls-2" points="82.94 68.49 63.59 83.56 63.59 44.33 82.94 29.25 82.94 68.49"/>
    <polygon class="cls-2" points="63.61 83.86 25.7 70.67 25.7 31.35 63.61 44.54 63.61 83.86"/>
    <polygon class="cls-2" points="63.69 44.81 25.77 31.62 46.33 17.59 82.42 30.06 63.69 44.81"/>
  </g>
  <g>
    <line class="cls-3" x1="26.97" y1="32.23" x2="63.65" y2="44.88"/>
    <g>
      <line class="cls-4" x1="26.97" y1="32.23" x2="27.92" y2="32.56"/>
      <line class="cls-5" x1="29.75" y1="33.19" x2="61.79" y2="44.24"/>
      <line class="cls-4" x1="62.7" y1="44.56" x2="63.65" y2="44.88"/>
    </g>
  </g>
  <g>
    <line class="cls-3" x1="63.65" y1="82.91" x2="63.65" y2="45"/>
    <g>
      <line class="cls-4" x1="63.65" y1="82.91" x2="63.65" y2="81.91"/>
      <line class="cls-6" x1="63.65" y1="79.79" x2="63.65" y2="47.06"/>
      <line class="cls-4" x1="63.65" y1="46" x2="63.65" y2="45"/>
    </g>
  </g>
  <text class="cls-7" transform="translate(44.65 34.48)">长</text>
  <text class="cls-7" transform="translate(66.05 57.14)">高</text>
  <text class="cls-7" transform="translate(66.05 36.86)">宽</text>
  <g>
    <line class="cls-3" x1="63.68" y1="45.02" x2="82.42" y2="30.27"/>
    <g>
      <line class="cls-4" x1="63.68" y1="45.02" x2="64.47" y2="44.4"/>
      <line class="cls-8" x1="66.03" y1="43.17" x2="80.86" y2="31.5"/>
      <line class="cls-4" x1="81.64" y1="30.89" x2="82.42" y2="30.27"/>
    </g>
  </g>
  <g>
    <path class="cls-9" d="M101.87,24.64h12.57a3.08,3.08,0,0,1,3.08,3.08v6.42a0,0,0,0,1,0,0H98.79a0,0,0,0,1,0,0V27.71A3.08,3.08,0,0,1,101.87,24.64Z"/>
    <rect class="cls-9" x="172.44" y="19.31" width="36.2" height="14.83"/>
    <rect class="cls-9" x="98.79" y="34.17" width="18.73" height="30.95"/>
    <rect class="cls-9" x="117.51" y="34.17" width="36.2" height="30.95"/>
    <path class="cls-9" d="M156.79,24.64h12.57a3.08,3.08,0,0,1,3.08,3.08v6.42a0,0,0,0,1,0,0H153.72a0,0,0,0,1,0,0V27.71A3.08,3.08,0,0,1,156.79,24.64Z"/>
    <path class="cls-9" d="M98.79,65.12h18.73a0,0,0,0,1,0,0v6.42a3.08,3.08,0,0,1-3.08,3.08H101.87a3.08,3.08,0,0,1-3.08-3.08V65.12A0,0,0,0,1,98.79,65.12Z"/>
    <path class="cls-9" d="M153.72,65.12h18.73a0,0,0,0,1,0,0v6.42a3.08,3.08,0,0,1-3.08,3.08H156.79a3.08,3.08,0,0,1-3.08-3.08V65.12A0,0,0,0,1,153.72,65.12Z"/>
    <rect class="cls-9" x="153.72" y="34.17" width="18.73" height="30.95"/>
    <text class="cls-10" transform="translate(132.54 29.89)">长</text>
    <text class="cls-10" transform="translate(161.18 29.89)">宽</text>
    <text class="cls-10" transform="translate(155.68 50.73)">高</text>
    <path class="cls-9" d="M174.12,16H207a1.68,1.68,0,0,1,1.68,1.68v1.59a0,0,0,0,1,0,0h-36.2a0,0,0,0,1,0,0V17.68A1.68,1.68,0,0,1,174.12,16Z"/>
    <rect class="cls-9" x="117.51" y="65.12" width="36.2" height="14.83" transform="translate(271.23 145.07) rotate(180)"/>
    <path class="cls-9" d="M119.2,79.95H152a1.68,1.68,0,0,1,1.68,1.68v1.59a0,0,0,0,1,0,0h-36.2a0,0,0,0,1,0,0V81.63A1.68,1.68,0,0,1,119.2,79.95Z" transform="translate(271.23 163.16) rotate(180)"/>
    <path class="cls-9" d="M196.42,48.08h27.72a1.55,1.55,0,0,1,1.55,1.55v1.72a0,0,0,0,1,0,0H194.87a0,0,0,0,1,0,0V49.63A1.55,1.55,0,0,1,196.42,48.08Z" transform="translate(259.99 -160.57) rotate(90)"/>
    <rect class="cls-9" x="172.44" y="34.17" width="36.2" height="30.95"/>
    <g>
      <line class="cls-4" x1="117.51" y1="34.17" x2="118.51" y2="34.17"/>
      <line class="cls-11" x1="120.47" y1="34.17" x2="170.46" y2="34.17"/>
      <line class="cls-4" x1="171.44" y1="34.17" x2="172.44" y2="34.17"/>
    </g>
    <g>
      <line class="cls-3" x1="153.72" y1="65.12" x2="153.72" y2="34.17"/>
      <g>
        <line class="cls-4" x1="153.72" y1="65.12" x2="153.72" y2="64.12"/>
        <line class="cls-12" x1="153.72" y1="62.19" x2="153.72" y2="36.14"/>
        <line class="cls-4" x1="153.72" y1="35.17" x2="153.72" y2="34.17"/>
      </g>
    </g>
  </g>
</svg>
