<?xml version="1.0" encoding="UTF-8" standalone="no"?>
<!-- Created with Inkscape (http://www.inkscape.org/) -->

<svg
   width="1050mm"
   height="390mm"
   viewBox="0 0 1050 390"
   version="1.1"
   id="svg312"
   inkscape:version="1.1.2 (b8e25be8, 2022-02-05)"
   sodipodi:docname="knife_2.svg"
   xmlns:inkscape="http://www.inkscape.org/namespaces/inkscape"
   xmlns:sodipodi="http://sodipodi.sourceforge.net/DTD/sodipodi-0.dtd"
   xmlns="http://www.w3.org/2000/svg"
   xmlns:svg="http://www.w3.org/2000/svg">
  <sodipodi:namedview
     id="namedview314"
     pagecolor="#ffffff"
     bordercolor="#666666"
     borderopacity="1.0"
     inkscape:pageshadow="2"
     inkscape:pageopacity="0.0"
     inkscape:pagecheckerboard="0"
     inkscape:document-units="mm"
     showgrid="false"
     inkscape:zoom="0.17980849"
     inkscape:cx="1201.2781"
     inkscape:cy="1276.358"
     inkscape:window-width="1792"
     inkscape:window-height="997"
     inkscape:window-x="0"
     inkscape:window-y="25"
     inkscape:window-maximized="1"
     inkscape:current-layer="layer1" />
  <defs
     id="defs309">
    <clipPath
       clipPathUnits="userSpaceOnUse"
       id="clipPath85">
      <path
         d="M 0,1863.476 H 3462.546 V 0 H 0 Z"
         id="path83" />
    </clipPath>
  </defs>
  <g
     inkscape:label="图层 1"
     inkscape:groupmode="layer"
     id="layer1">
    <g
       id="g17"
       transform="matrix(0.35277777,0,0,-0.35277777,23.059858,263.97284)">
      <path
         d="m 0,0 v 368.504 1.417 h 793.7"
         style="fill:none;stroke:#ed1c24;stroke-width:1;stroke-linecap:butt;stroke-linejoin:miter;stroke-miterlimit:10;stroke-dasharray:none;stroke-opacity:1"
         id="path19" />
    </g>
    <path
       d="M 303.05975,263.97295 H 533.05993 V 133.97293 H 303.05975 Z"
       style="fill:none;stroke:#ed1c24;stroke-width:0.352778;stroke-linecap:butt;stroke-linejoin:miter;stroke-miterlimit:10;stroke-dasharray:none;stroke-opacity:1"
       id="path21" />
    <g
       id="g23"
       transform="matrix(0.35277777,0,0,-0.35277777,533.05968,264.47294)">
      <path
         d="M 0,0 H 793.7"
         style="fill:none;stroke:#ed1c24;stroke-width:1;stroke-linecap:butt;stroke-linejoin:miter;stroke-miterlimit:10;stroke-dasharray:none;stroke-opacity:1"
         id="path25" />
    </g>
    <g
       id="g27"
       transform="matrix(0.35277777,0,0,-0.35277777,1042.5597,133.97286)">
      <path
         d="M 0,0 H -650.552 V -368.504 H 0"
         style="fill:none;stroke:#ed1c24;stroke-width:1;stroke-linecap:butt;stroke-linejoin:miter;stroke-miterlimit:10;stroke-dasharray:none;stroke-opacity:1"
         id="path29" />
    </g>
    <g
       id="g31"
       transform="matrix(0.35277777,0,0,-0.35277777,533.05968,133.47287)">
      <path
         d="M 0,0 H 793.7"
         style="fill:none;stroke:#ed1c24;stroke-width:1;stroke-linecap:butt;stroke-linejoin:miter;stroke-miterlimit:10;stroke-dasharray:none;stroke-opacity:1"
         id="path33" />
    </g>
    <g
       id="g35"
       transform="matrix(0.35277777,0,0,-0.35277777,23.059858,264.47294)">
      <path
         d="M 0,0 H 793.7"
         style="fill:none;stroke:#ed1c24;stroke-width:1;stroke-linecap:butt;stroke-linejoin:miter;stroke-miterlimit:10;stroke-dasharray:none;stroke-opacity:1"
         id="path37" />
    </g>
    <g
       id="g39"
       transform="matrix(0.35277777,0,0,-0.35277777,533.05968,133.97286)">
      <path
         d="M 0,0 V 325.984 H 793.7 V 0"
         style="fill:none;stroke:#000000;stroke-width:1;stroke-linecap:butt;stroke-linejoin:miter;stroke-miterlimit:10;stroke-dasharray:none;stroke-opacity:1"
         id="path41" />
    </g>
    <g
       id="g43"
       transform="matrix(0.35277777,0,0,-0.35277777,813.05953,263.97284)">
      <path
         d="M 0,0 V -325.984 H -793.7 V 0"
         style="fill:none;stroke:#000000;stroke-width:1;stroke-linecap:butt;stroke-linejoin:miter;stroke-miterlimit:10;stroke-dasharray:none;stroke-opacity:1"
         id="path45" />
    </g>
    <g
       id="g47"
       transform="matrix(0.35277777,0,0,-0.35277777,303.05961,263.97284)">
      <path
         d="M 0,0 V -325.984 H -793.7 V 0"
         style="fill:none;stroke:#000000;stroke-width:1;stroke-linecap:butt;stroke-linejoin:miter;stroke-miterlimit:10;stroke-dasharray:none;stroke-opacity:1"
         id="path49" />
    </g>
    <g
       id="g51"
       transform="matrix(0.35277777,0,0,-0.35277777,303.05961,133.97286)">
      <path
         d="m 0,0 8.504,8.504 v 317.48 H 643.465 V 8.504 L 651.969,0"
         style="fill:none;stroke:#000000;stroke-width:1;stroke-linecap:butt;stroke-linejoin:miter;stroke-miterlimit:10;stroke-dasharray:none;stroke-opacity:1"
         id="path53" />
    </g>
    <g
       id="g55"
       transform="matrix(0.35277777,0,0,-0.35277777,533.04486,264.00816)">
      <path
         d="m 0,0 -8.504,-8.504 v -317.48 h -634.96 V -8.504 L -651.968,0"
         style="fill:none;stroke:#000000;stroke-width:1;stroke-linecap:butt;stroke-linejoin:miter;stroke-miterlimit:10;stroke-dasharray:none;stroke-opacity:1"
         id="path57" />
    </g>
    <g
       id="g59"
       transform="matrix(0.35277777,0,0,-0.35277777,813.05953,133.97286)">
      <path
         d="m 0,0 8.504,8.504 v 317.48 H 642.048 V 8.504 L 650.552,0"
         style="fill:none;stroke:#000000;stroke-width:1;stroke-linecap:butt;stroke-linejoin:miter;stroke-miterlimit:10;stroke-dasharray:none;stroke-opacity:1"
         id="path61" />
    </g>
    <g
       id="g63"
       transform="matrix(0.35277777,0,0,-0.35277777,1042.5449,264.00816)">
      <path
         d="m 0,0 -8.504,-8.504 v -317.48 H -642.047 V -8.504 L -650.551,0"
         style="fill:none;stroke:#000000;stroke-width:1;stroke-linecap:butt;stroke-linejoin:miter;stroke-miterlimit:10;stroke-dasharray:none;stroke-opacity:1"
         id="path65" />
    </g>
    <g
       id="g67"
       transform="matrix(0.35277777,0,0,-0.35277777,23.059858,133.97286)">
      <path
         d="M 0,0 V 325.984 H 793.7 V 0"
         style="fill:none;stroke:#000000;stroke-width:1;stroke-linecap:butt;stroke-linejoin:miter;stroke-miterlimit:10;stroke-dasharray:none;stroke-opacity:1"
         id="path69" />
    </g>
    <g
       id="g71"
       transform="matrix(0.35277777,0,0,-0.35277777,23.059858,133.97286)">
      <path
         d="M 0,0 -31.181,-8.355 V -360.149 L 0,-368.504"
         style="fill:none;stroke:#000000;stroke-width:1;stroke-linecap:butt;stroke-linejoin:miter;stroke-miterlimit:10;stroke-dasharray:none;stroke-opacity:1"
         id="path73" />
    </g>
    <g
       id="g75"
       transform="matrix(0.35277777,0,0,-0.35277777,1042.5597,263.97284)">
      <path
         d="M 0,0 V 368.504"
         style="fill:none;stroke:#000000;stroke-width:1;stroke-linecap:butt;stroke-linejoin:miter;stroke-miterlimit:10;stroke-dasharray:none;stroke-opacity:1"
         id="path77" />
    </g>
    <g
       id="g79"
       transform="matrix(0.35277777,0,0,-0.35277777,-75.919884,480.74501)">
      <g
         id="g81"
         clip-path="url(#clipPath85)">
        <path
           d="M 598.842,806.133 H 570.529 V 771.44 h 28.313 z m 11.166,1.993 c 0.532,-0.399 0.798,-0.664 0.798,-1.063 0,-0.266 -0.266,-0.532 -0.798,-0.93 l -4.918,-2.792 v -30.44 c 0,-5.183 0.266,-9.171 0.665,-12.627 v -0.399 c 0,-2.127 -5.849,-3.456 -5.849,-3.456 -0.931,0 -1.064,0.665 -1.064,1.994 v 10.102 H 570.53 v -12.229 c 0,-1.329 -0.399,-1.595 -2.924,-2.526 -1.197,-0.398 -1.994,-0.664 -2.526,-0.664 -0.931,0 -1.197,0.532 -1.197,1.994 v 0.664 c 0.266,4.387 0.399,11.033 0.399,15.286 v 37.485 c 0,1.728 -0.133,5.317 -0.399,7.709 l 8.375,-7.177 h 24.192 l 4.785,6.114 z m -30.573,55.297 H 532.114 V 832.85 h 47.321 z m 11.432,2.126 c 0.665,-0.399 0.93,-0.797 0.93,-1.063 0,-0.266 -0.265,-0.532 -0.93,-0.93 l -5.184,-2.792 v -23.66 c 0,-1.994 0.931,-11.83 0.931,-12.894 0,-1.196 -0.665,-1.728 -3.59,-2.791 -1.063,-0.399 -1.86,-0.532 -2.392,-0.532 -0.931,0 -1.197,0.665 -1.197,2.393 v 6.646 h -47.32 v -7.045 c 0,-1.462 -0.266,-1.861 -2.925,-2.659 -1.196,-0.399 -1.993,-0.531 -2.525,-0.531 -0.931,0 -1.196,0.531 -1.196,1.728 v 0.797 c 0.265,4.387 0.398,10.9 0.398,15.153 v 28.845 c 0,1.728 -0.133,5.317 -0.398,7.71 l 8.507,-7.577 h 42.934 l 4.652,6.38 z m -52.239,-59.682 h -25.787 v -34.428 h 25.787 z m 10.634,2.126 c 0.532,-0.399 0.797,-0.797 0.797,-1.063 0,-0.399 -0.265,-0.664 -0.797,-1.063 l -4.387,-2.393 v -29.243 c 0,-5.184 0.266,-8.773 0.665,-12.229 v -0.399 c 0,-1.196 -0.532,-1.728 -3.323,-2.925 -1.196,-0.531 -1.994,-0.797 -2.525,-0.797 -0.931,0 -1.064,0.665 -1.064,2.127 v 8.507 h -25.787 v -12.362 c 0,-1.329 -0.266,-1.728 -2.924,-2.525 -1.064,-0.399 -1.861,-0.532 -2.393,-0.532 -0.931,0 -1.196,0.664 -1.196,1.861 v 0.797 c 0.265,4.387 0.398,10.501 0.398,14.755 v 37.883 c 0,1.728 -0.133,5.317 -0.398,7.71 l 8.374,-7.311 h 21.932 l 3.988,5.849 z"
           style="fill:#221b19;fill-opacity:1;fill-rule:nonzero;stroke:none"
           id="path87" />
        <g
           id="g89"
           transform="translate(730.8359,764.6602)">
          <path
             d="m 0,0 v 33.231 h -57.29 l -0.532,-0.399 V 0 Z m -57.955,78.159 c 13.426,-6.646 19.274,-11.564 19.274,-17.546 0,-3.722 -2.126,-6.247 -4.386,-6.247 -1.595,0 -2.127,0.664 -3.19,4.386 -1.197,4.254 -5.583,11.565 -12.761,18.211 z M 10.368,36.155 c 0.665,-0.531 1.063,-0.797 1.063,-1.196 0,-0.399 -0.398,-0.798 -1.063,-1.329 L 6.513,31.237 V 10.501 c 0,-7.71 0.266,-11.83 0.665,-17.812 v -0.797 c 0,-1.994 -0.665,-2.393 -3.855,-3.722 -1.196,-0.532 -1.994,-0.665 -2.393,-0.665 -0.797,0 -0.93,0.532 -0.93,1.595 v 7.976 h -57.822 v -6.381 c 0,-1.595 -0.399,-2.392 -2.658,-3.323 -1.197,-0.531 -2.127,-0.797 -2.792,-0.797 -0.93,0 -1.196,0.664 -1.196,2.525 0,1.994 0.399,11.166 0.399,13.293 V 29.509 C -75.102,23.66 -87.464,18.344 -101.155,13.691 l -0.797,1.861 c 44.662,19.274 76.564,42.535 97.034,71.513 H -55.429 C -68.721,68.854 -79.887,55.163 -91.319,45.859 l -1.462,1.329 c 16.217,16.748 32.434,42.535 43.201,63.803 l 7.842,-5.051 c 0.931,-0.664 1.329,-1.063 1.329,-1.462 0,-0.532 -0.664,-0.93 -1.994,-1.462 -1.994,-0.665 -2.791,-1.329 -4.918,-4.387 -2.126,-3.057 -4.12,-5.981 -6.114,-8.773 H -5.45 l 4.519,5.184 7.71,-7.311 C 7.444,87.065 7.843,86.666 7.843,86.268 7.843,85.736 7.178,85.47 6.115,85.204 3.19,84.54 0.93,82.811 -1.994,79.355 -13.558,65 -29.775,49.714 -52.239,36.155 h 49.315 l 4.253,6.513 z"
             style="fill:#221b19;fill-opacity:1;fill-rule:nonzero;stroke:none"
             id="path91" />
        </g>
        <g
           id="g93"
           transform="translate(2757.9387,941.3952)">
          <path
             d="m 0,0 c 11.39,-3.591 15.971,-6.81 15.971,-12.01 0,-3.714 -3.095,-5.695 -4.704,-5.695 -1.114,0 -1.858,1.61 -2.353,3.219 -1.362,4.581 -5.076,9.657 -9.533,13.248 z m -15.352,-24.143 c 12.133,-4.952 17.456,-10.524 17.456,-14.238 0,-3.838 -2.599,-6.19 -3.713,-6.19 -1.238,0 -2.6,0.866 -3.096,2.847 -0.99,4.086 -5.324,11.762 -11.143,16.219 z m 80.351,4.953 c 0.62,-0.619 0.867,-0.991 0.867,-1.239 0,-0.247 -0.247,-0.371 -0.991,-0.371 H -35.657 c -2.6,0 -6.19,-0.495 -8.295,-1.362 l -3.466,4.581 c 3.095,-0.248 6.19,-0.495 9.037,-0.495 h 89.39 l 4.705,7.552 z m -2.476,-29.343 c 0.496,-0.495 0.743,-0.743 0.743,-0.991 0,-0.247 -0.371,-0.371 -0.99,-0.371 h -87.038 c -0.247,-45.066 -3.59,-50.143 -24.885,-67.352 l -1.238,1.238 c 16.219,16.838 19.809,23.648 19.809,51.876 0,6.562 -0.247,14.362 -0.495,23.647 l 8.171,-6.685 h 39.619 c 4.705,8.914 7.676,14.981 12.505,24.638 l 8.295,-4.705 c 0.742,-0.371 1.114,-0.743 1.114,-0.867 0,-0.247 -0.495,-0.495 -1.486,-0.743 -2.971,-0.742 -4.952,-2.104 -17.828,-18.323 h 30.333 l 4.581,7.18 z"
             style="fill:#221b19;fill-opacity:1;fill-rule:nonzero;stroke:none"
             id="path95" />
        </g>
        <path
           d="m 2929.042,876.272 h -26.371 v -32.314 h 26.371 z m 10.4,1.857 c 0.496,-0.372 0.743,-0.619 0.743,-0.991 0,-0.247 -0.247,-0.495 -0.743,-0.866 l -4.581,-2.6 V 845.32 c 0,-4.829 0.248,-8.543 0.619,-11.762 v -0.372 c 0,-1.98 -5.447,-3.219 -5.447,-3.219 -0.867,0 -0.991,0.619 -0.991,1.857 v 9.41 h -26.371 v -11.39 c 0,-1.238 -0.371,-1.486 -2.723,-2.353 -1.115,-0.371 -1.858,-0.619 -2.353,-0.619 -0.867,0 -1.114,0.495 -1.114,1.857 v 0.619 c 0.247,4.086 0.371,10.276 0.371,14.238 V 878.5 c 0,1.61 -0.124,4.953 -0.371,7.181 l 7.8,-6.686 h 22.533 l 4.457,5.696 z m -28.476,51.504 h -44.076 v -28.476 h 44.076 z m 10.648,1.981 c 0.619,-0.371 0.866,-0.743 0.866,-0.99 0,-0.248 -0.247,-0.496 -0.866,-0.867 l -4.829,-2.6 v -22.038 c 0,-1.857 0.867,-11.019 0.867,-12.009 0,-1.115 -0.619,-1.61 -3.343,-2.6 -0.99,-0.372 -1.733,-0.495 -2.228,-0.495 -0.867,0 -1.115,0.618 -1.115,2.228 v 6.19 h -44.076 v -6.562 c 0,-1.361 -0.247,-1.733 -2.723,-2.476 -1.115,-0.371 -1.857,-0.495 -2.353,-0.495 -0.866,0 -1.114,0.495 -1.114,1.61 v 0.743 c 0.248,4.085 0.371,10.152 0.371,14.114 v 26.866 c 0,1.61 -0.123,4.952 -0.371,7.181 l 7.924,-7.057 h 39.99 l 4.333,5.943 z m -48.657,-55.59 h -24.019 v -32.066 h 24.019 z m 9.905,1.981 c 0.495,-0.372 0.742,-0.743 0.742,-0.99 0,-0.372 -0.247,-0.619 -0.742,-0.991 l -4.086,-2.229 v -27.237 c 0,-4.829 0.248,-8.172 0.619,-11.391 v -0.371 c 0,-1.114 -0.495,-1.61 -3.095,-2.724 -1.114,-0.495 -1.857,-0.743 -2.353,-0.743 -0.866,0 -0.99,0.619 -0.99,1.981 v 7.924 h -24.019 V 829.72 c 0,-1.238 -0.247,-1.61 -2.724,-2.353 -0.99,-0.371 -1.733,-0.495 -2.228,-0.495 -0.867,0 -1.114,0.619 -1.114,1.734 v 0.742 c 0.247,4.086 0.371,9.781 0.371,13.743 v 35.286 c 0,1.609 -0.124,4.952 -0.371,7.18 l 7.8,-6.809 h 20.428 l 3.714,5.448 z"
           style="fill:#221b19;fill-opacity:1;fill-rule:nonzero;stroke:none"
           id="path97" />
        <g
           id="g99"
           transform="translate(2771.4336,789.3435)">
          <path
             d="m 0,0 c 10.523,-6.686 13,-9.657 13,-12.876 0,-3.714 -3.219,-7.057 -5.076,-7.057 -1.486,0 -2.105,0.99 -2.105,4.085 0,3.839 -3.219,11.019 -7.057,14.734 z m 26.248,-75.399 h -40.486 v -23.895 h 40.486 z m 8.666,2.228 c 0.619,-0.495 0.867,-0.866 0.867,-1.238 0,-0.619 -0.372,-0.867 -3.591,-3.219 v -17.705 c 0,-4.209 0.124,-9.78 0.372,-13.495 v -0.495 c 0,-1.486 -0.496,-1.981 -3.219,-3.59 -0.991,-0.619 -1.733,-0.991 -2.229,-0.991 -0.619,0 -0.866,0.619 -0.866,1.857 v 10.029 h -40.486 v -8.048 c 0,-2.105 -5.324,-4.209 -5.572,-4.209 -0.618,0 -0.742,0.495 -0.742,1.733 v 1.486 c 0.247,4.457 0.371,10.771 0.371,15.104 v 16.715 c 0,2.971 -0.124,8.914 -0.371,12.752 l 7.924,-6.191 h 36.399 l 3.962,5.2 z m 1.61,33.8 c 0.99,-0.867 1.361,-1.486 1.361,-1.857 0,-0.619 -0.742,-0.867 -1.857,-0.867 h -49.399 c -2.6,0 -6.191,-0.495 -8.296,-1.362 l -3.466,4.581 c 3.095,-0.248 6.19,-0.495 9.038,-0.495 h 41.6 l 4.085,6.066 z m 2.971,-16.219 c 0.99,-0.867 1.361,-1.486 1.361,-1.857 0,-0.619 -0.742,-0.867 -1.856,-0.867 h -55.343 c -2.6,0 -6.19,-0.495 -8.295,-1.362 l -3.466,4.581 c 3.095,-0.247 6.19,-0.495 9.038,-0.495 h 47.542 l 4.086,6.067 z m 7.429,33.8 c 0.99,-0.867 1.485,-1.486 1.485,-1.981 0,-0.495 -0.742,-0.743 -1.981,-0.743 h -65.99 c -2.6,0 -6.19,-0.496 -8.295,-1.362 l -3.466,4.581 c 3.094,-0.248 6.19,-0.495 9.037,-0.495 h 56.953 l 4.581,6.809 z m -77.629,16.714 c 0.867,-0.619 1.238,-1.114 1.238,-1.486 0,-0.372 -0.371,-0.619 -1.238,-0.99 -2.6,-0.991 -2.971,-1.61 -4.209,-4.581 -2.971,-7.057 -6.562,-14.61 -10.524,-22.162 3.962,-1.114 4.086,-1.114 4.086,-1.609 0,-0.372 -0.248,-0.62 -2.476,-2.229 V -89.39 c 0,-7.676 0.123,-14.485 0.495,-20.057 v -0.743 c 0,-1.485 -0.495,-2.104 -3.343,-3.714 -1.238,-0.743 -1.981,-1.114 -2.6,-1.114 -0.619,0 -0.867,0.743 -0.867,2.352 v 1.734 c 0.372,7.304 0.496,15.352 0.496,21.79 V -41.6 c -5.2,-8.914 -11.019,-17.333 -17.457,-24.762 l -1.486,1.115 c 12.629,18.695 23.152,40.485 30.333,65.247 z"
             style="fill:#221b19;fill-opacity:1;fill-rule:nonzero;stroke:none"
             id="path101" />
        </g>
        <g
           id="g103"
           transform="translate(2919.6323,708.1251)">
          <path
             d="m 0,0 c 10.153,-4.953 19.934,-11.267 19.934,-18.2 0,-3.219 -2.229,-5.943 -3.467,-5.943 -1.486,0 -2.229,0.496 -2.724,2.848 -1.115,5.324 -5.695,13 -14.486,20.304 z m -40.114,6.067 c 10.524,-5.201 15.105,-9.162 15.105,-13.619 0,-2.972 -2.229,-5.696 -3.714,-5.696 -1.486,0 -2.353,1.115 -2.477,2.229 -0.618,4.705 -2.723,9.657 -9.781,16.095 z M -9.162,-8.295 c 0,-10.648 0.372,-14.362 3.467,-15.724 0.619,-0.247 0.99,-0.619 0.99,-0.99 0,-0.248 -0.123,-0.619 -0.371,-0.991 -3.962,-6.19 -8.295,-6.438 -25.752,-6.438 -20.305,0 -27.238,0 -27.238,6.686 v 18.695 c 0,3.095 -0.123,7.552 -0.371,9.409 l 8.79,-4.209 c 0.495,-0.248 0.867,-0.495 0.867,-0.867 0,-0.248 -0.248,-0.495 -0.867,-0.867 l -2.848,-1.733 v -17.581 c 0,-4.085 3.839,-4.333 15.972,-4.333 6.933,0 13.866,0.248 18.075,0.619 5.2,0.495 6.934,4.457 7.429,18.448 z m 4.086,37.142 H -60.914 V 13.743 h 55.838 z m 0,17.333 H -60.914 V 31.571 h 55.838 z m 0,16.219 H -60.914 V 48.904 h 55.838 z m 9.409,2.848 C 5.076,64.752 5.324,64.256 5.324,63.761 5.324,63.39 5.2,63.019 4.705,62.647 L 0.743,59.552 V 34.171 c 0,-9.41 0.248,-16.59 0.619,-22.162 v -0.99 C 1.362,9.409 0.991,8.914 -1.486,7.8 -2.723,7.305 -3.467,7.057 -3.962,7.057 c -1.114,0 -1.114,0.372 -1.114,3.962 H -60.914 V 7.924 c 0,-1.61 -0.371,-1.981 -2.723,-2.972 -1.115,-0.495 -1.858,-0.743 -2.353,-0.743 -0.867,0 -1.114,0.743 -1.114,2.724 0,3.467 0.495,20.305 0.495,24.143 v 27.733 c 0,2.848 -0.123,8.419 -0.371,12.133 l 7.304,-5.819 h 14.982 l 4.952,16.467 7.552,-3.343 c 0.619,-0.248 0.99,-0.619 0.99,-0.867 0,-0.247 -0.495,-0.619 -1.361,-0.866 -2.601,-0.743 -5.572,-3.715 -9.658,-11.391 h 35.162 l 3.467,5.448 z M -71.932,-1.61 c -1.362,-17.085 -3.096,-22.409 -8.419,-25.504 -1.239,-0.743 -2.477,-0.991 -3.467,-0.991 -3.096,0 -4.457,2.353 -4.457,3.962 0,0.991 0.495,1.61 2.105,2.6 7.428,4.457 10.152,8.048 12.876,20.181 z"
             style="fill:#221b19;fill-opacity:1;fill-rule:nonzero;stroke:none"
             id="path105" />
        </g>
        <g
           id="g107"
           transform="translate(1280.9734,796.411)">
          <path
             d="m 0,0 c 2.653,-8.936 8.936,-17.453 17.453,-17.453 5.864,0 11.17,3.351 11.17,11.031 0,7.4 -4.747,11.03 -11.589,13.822 -8.796,3.351 -16.615,7.959 -16.615,16.755 0,8.657 7.819,16.615 19.966,16.476 5.027,0 8.377,-1.118 10.891,-2.234 0.977,-3.212 2.234,-10.193 2.652,-14.103 l -1.954,-0.837 c -2.374,6.981 -7.54,14.102 -14.661,14.102 -6.841,0 -10.332,-4.747 -10.332,-10.332 0,-6.842 6.842,-10.193 12.427,-12.427 9.773,-3.77 16.615,-8.796 16.615,-17.872 0,-11.169 -10.192,-17.453 -20.944,-17.453 -7.26,0 -13.124,2.514 -15.079,4.608 -0.977,2.234 -1.675,10.751 -2.094,15.219 z"
             style="fill:#221b19;fill-opacity:1;fill-rule:nonzero;stroke:none"
             id="path109" />
        </g>
        <g
           id="g111"
           transform="translate(1322.7209,779.3772)">
          <path
             d="m 0,0 c 8.936,0.558 10.332,2.513 10.332,11.17 v 65.343 c 0,9.634 -1.117,10.612 -10.053,11.449 v 1.676 c 6.842,0.838 14.382,3.351 16.755,4.747 V 11.17 C 17.034,2.513 18.291,0.558 27.506,0 V -1.955 H 0 Z"
             style="fill:#221b19;fill-opacity:1;fill-rule:nonzero;stroke:none"
             id="path113" />
        </g>
        <g
           id="g115"
           transform="translate(1366.7017,809.6753)">
          <path
             d="m 0,0 c 0,-17.872 9.355,-30.577 24.155,-30.577 11.728,0 20.245,7.539 20.245,26.389 0,13.543 -8.237,28.203 -23.736,28.203 C 7.819,24.015 0,13.963 0,0 m 52.917,-2.094 c 0,-21.083 -17.313,-31.695 -30.717,-31.695 -18.43,0 -30.996,13.963 -30.996,29.181 0,22.619 18.989,31.974 30.717,31.974 17.592,0 30.996,-13.264 30.996,-29.46"
             style="fill:#221b19;fill-opacity:1;fill-rule:nonzero;stroke:none"
             id="path117" />
        </g>
        <g
           id="g119"
           transform="translate(1441.2588,818.332)">
          <path
             d="m 0,0 c 0,-12.985 6.423,-19.966 15.079,-19.966 6.284,0 12.566,4.468 12.566,16.336 0,12.566 -5.026,19.687 -14.52,19.687 C 5.446,15.917 0,10.472 0,0 m -4.468,-55.57 c 0,-8.796 8.098,-15.917 19.827,-15.917 15.777,0 23.037,8.656 23.037,18.43 0,4.468 -2.234,8.377 -5.864,10.332 -3.909,2.234 -8.656,2.374 -16.336,2.374 -19.966,0 -20.664,-12.846 -20.664,-15.219 m 35.883,66.321 c 2.793,-2.932 4.747,-7.679 4.747,-11.868 0,-14.66 -13.124,-21.642 -23.037,-21.642 -1.397,0 -2.932,0.14 -5.027,0.419 C 4.608,-23.596 0,-26.529 0,-29.46 c 0,-2.653 3.211,-5.166 8.657,-5.166 5.864,0 11.309,0.558 16.615,0.558 9.634,0 19.547,-2.792 19.547,-15.638 0,-12.706 -15.219,-26.668 -33.509,-26.668 -15.359,0 -23.736,8.936 -23.736,17.872 0,3.491 1.396,6.004 2.792,8.098 2.793,3.211 9.215,7.679 12.287,10.193 -5.725,1.256 -12.147,6.143 -11.589,12.007 4.328,1.257 10.891,5.027 12.985,7.261 -6.283,2.094 -12.706,8.796 -12.706,16.894 0,18.989 21.084,28.064 35.046,19.268 7.121,0.558 12.566,1.257 18.709,2.374 l 0.838,-1.117 c -1.675,-1.815 -4.328,-4.887 -6.283,-5.725 z"
             style="fill:#221b19;fill-opacity:1;fill-rule:nonzero;stroke:none"
             id="path121" />
        </g>
        <g
           id="g123"
           transform="translate(1526.0079,809.3961)">
          <path
             d="m 0,0 c -2.932,-1.675 -11.728,-5.026 -14.8,-6.283 -6.283,-2.374 -10.053,-5.027 -10.053,-10.192 0,-7.261 5.864,-11.031 10.891,-11.031 4.747,0 11.03,3.491 13.962,7.121 z m 7.54,-33.51 c -0.28,0 -3.072,1.118 -4.468,2.514 -1.676,1.815 -2.234,3.49 -3.072,6.562 -5.445,-4.188 -11.728,-9.076 -16.894,-9.076 -9.634,0 -16.197,7.261 -16.197,15.917 0,6.283 4.329,10.751 13.963,13.684 7.121,2.094 15.917,5.445 19.128,7.4 0,6.841 -0.14,18.988 -12.705,18.988 -2.234,-0.139 -9.774,-0.698 -12.148,-11.868 -0.279,-0.977 -1.117,-2.373 -3.071,-2.373 -1.955,0 -4.189,1.955 -4.189,4.747 0,2.094 1.675,3.77 3.909,5.026 3.491,2.374 12.845,8.099 19.687,9.635 6.841,0 15.498,-4.468 15.498,-16.755 v -30.019 c 0,-5.725 2.094,-7.959 5.027,-7.959 2.373,0 4.607,0.838 6.143,1.815 l 1.257,-2.373 z"
             style="fill:#221b19;fill-opacity:1;fill-rule:nonzero;stroke:none"
             id="path125" />
        </g>
        <g
           id="g127"
           transform="translate(1549.7433,779.3772)">
          <path
             d="m 0,0 c 8.098,0.558 10.332,2.653 10.332,11.03 v 28.064 c 0,9.355 -0.977,9.914 -8.796,11.45 v 1.815 c 5.585,1.396 11.169,2.653 15.498,5.864 V 46.634 c 2.793,1.675 6.283,4.189 10.611,7.121 3.91,2.373 7.4,3.909 11.31,3.909 11.588,0 18.151,-7.12 18.151,-18.151 V 11.728 C 57.106,1.955 58.362,0.558 66.181,0 V -1.955 H 39.234 V 0 c 9.495,0.558 11.17,2.513 11.17,11.728 v 22.898 c 0,7.959 -2.234,16.895 -15.079,16.895 -6.842,0 -13.963,-4.189 -18.291,-8.517 V 11.589 C 17.034,2.653 18.43,0.558 28.064,0 V -1.955 H 0 Z"
             style="fill:#221b19;fill-opacity:1;fill-rule:nonzero;stroke:none"
             id="path129" />
        </g>
        <g
           id="g131"
           transform="translate(1988.7549,857.9099)">
          <path
             d="m 0,0 c 9.725,-3.065 13.636,-5.814 13.636,-10.253 0,-3.171 -2.643,-4.862 -4.017,-4.862 -0.951,0 -1.586,1.374 -2.008,2.748 -1.163,3.911 -4.334,8.245 -8.139,11.31 z m -13.107,-20.612 c 10.359,-4.228 14.904,-8.984 14.904,-12.156 0,-3.276 -2.22,-5.285 -3.171,-5.285 -1.057,0 -2.22,0.74 -2.642,2.431 -0.846,3.489 -4.546,10.042 -9.514,13.847 z m 68.6,4.228 c 0.529,-0.528 0.74,-0.845 0.74,-1.057 0,-0.211 -0.211,-0.317 -0.846,-0.317 h -85.829 c -2.22,0 -5.285,-0.423 -7.082,-1.163 l -2.959,3.911 c 2.642,-0.211 5.285,-0.423 7.716,-0.423 h 76.316 l 4.017,6.448 z m -2.114,-25.051 c 0.423,-0.423 0.634,-0.634 0.634,-0.846 0,-0.211 -0.317,-0.317 -0.845,-0.317 H -21.14 c -0.211,-38.475 -3.065,-42.809 -21.246,-57.501 l -1.057,1.057 c 13.847,14.375 16.912,20.189 16.912,44.289 0,5.602 -0.211,12.261 -0.422,20.189 l 6.976,-5.708 h 33.824 c 4.017,7.61 6.554,12.789 10.676,21.034 l 7.082,-4.016 c 0.634,-0.317 0.951,-0.635 0.951,-0.74 0,-0.212 -0.423,-0.423 -1.268,-0.635 -2.537,-0.634 -4.229,-1.796 -15.221,-15.643 h 25.896 l 3.912,6.13 z"
             style="fill:#221b19;fill-opacity:1;fill-rule:nonzero;stroke:none"
             id="path133" />
        </g>
        <path
           d="m 2134.834,802.311 h -22.514 v -27.588 h 22.514 z m 8.879,1.586 c 0.423,-0.318 0.634,-0.529 0.634,-0.846 0,-0.212 -0.211,-0.423 -0.634,-0.74 l -3.911,-2.22 v -24.205 c 0,-4.123 0.211,-7.294 0.529,-10.042 v -0.317 c 0,-1.691 -4.651,-2.748 -4.651,-2.748 -0.74,0 -0.846,0.528 -0.846,1.585 v 8.033 h -22.514 v -9.724 c 0,-1.057 -0.317,-1.269 -2.325,-2.008 -0.952,-0.317 -1.586,-0.529 -2.009,-0.529 -0.74,0 -0.951,0.423 -0.951,1.586 v 0.528 c 0.211,3.488 0.317,8.773 0.317,12.156 v 29.808 c 0,1.374 -0.106,4.227 -0.317,6.13 l 6.659,-5.708 h 19.238 l 3.805,4.863 z m -24.311,43.971 h -37.63 v -24.311 h 37.63 z m 9.09,1.692 c 0.529,-0.318 0.74,-0.635 0.74,-0.846 0,-0.212 -0.211,-0.423 -0.74,-0.74 l -4.122,-2.22 v -18.815 c 0,-1.585 0.74,-9.407 0.74,-10.253 0,-0.951 -0.529,-1.374 -2.854,-2.219 -0.846,-0.317 -1.48,-0.423 -1.903,-0.423 -0.74,0 -0.951,0.528 -0.951,1.902 v 5.286 h -37.63 v -5.603 c 0,-1.162 -0.211,-1.479 -2.325,-2.114 -0.951,-0.317 -1.586,-0.423 -2.009,-0.423 -0.74,0 -0.951,0.423 -0.951,1.375 v 0.634 c 0.211,3.488 0.317,8.667 0.317,12.05 v 22.937 c 0,1.374 -0.106,4.228 -0.317,6.13 l 6.765,-6.024 h 34.142 l 3.699,5.073 z m -41.54,-47.461 h -20.506 v -27.377 h 20.506 z m 8.456,1.692 c 0.422,-0.317 0.634,-0.635 0.634,-0.846 0,-0.317 -0.212,-0.528 -0.634,-0.846 l -3.488,-1.902 v -23.254 c 0,-4.123 0.211,-6.977 0.528,-9.725 v -0.317 c 0,-0.951 -0.423,-1.374 -2.642,-2.325 -0.952,-0.423 -1.586,-0.635 -2.009,-0.635 -0.74,0 -0.845,0.529 -0.845,1.692 v 6.764 h -20.506 v -9.83 c 0,-1.057 -0.212,-1.374 -2.326,-2.008 -0.846,-0.317 -1.48,-0.423 -1.903,-0.423 -0.739,0 -0.951,0.529 -0.951,1.48 v 0.634 c 0.212,3.488 0.317,8.351 0.317,11.733 v 30.125 c 0,1.374 -0.105,4.228 -0.317,6.13 l 6.66,-5.813 h 17.44 l 3.171,4.651 z"
           style="fill:#221b19;fill-opacity:1;fill-rule:nonzero;stroke:none"
           id="path135" />
        <g
           id="g137"
           transform="translate(2171.3015,831.6959)">
          <path
             d="m 0,0 c 0,-2.22 -1.797,-4.228 -4.017,-4.228 -2.114,0 -4.016,2.008 -4.016,4.228 0,2.537 1.902,4.44 4.016,4.44 C -1.585,4.44 0,2.22 0,0 m -14.481,-62.786 c 6.765,0.528 7.822,1.902 7.822,8.033 v 21.986 c 0,6.765 -0.74,7.293 -6.765,8.35 v 1.374 c 4.439,0.951 7.822,2.114 11.839,4.228 v -35.938 c 0,-6.131 1.057,-7.505 7.927,-8.033 v -1.48 h -20.823 z"
             style="fill:#221b19;fill-opacity:1;fill-rule:nonzero;stroke:none"
             id="path139" />
        </g>
        <g
           id="g141"
           transform="translate(2222.6719,776.9428)">
          <path
             d="m 0,0 c -4.439,-5.919 -11.733,-10.676 -18.075,-10.676 -12.895,0 -21.034,10.147 -21.034,20.4 0,19.661 18.709,25.897 26.213,25.897 2.854,0 11.311,-1.797 11.311,-5.179 0,-1.691 -2.114,-3.7 -3.594,-3.7 -0.423,0 -0.846,0.318 -1.48,0.846 -3.699,2.854 -7.187,3.805 -12.579,3.805 -6.341,0 -14.163,-4.968 -14.163,-17.229 0.105,-15.116 10.887,-19.872 17.757,-19.872 5.074,0 8.774,1.268 14.376,7.187 z"
             style="fill:#221b19;fill-opacity:1;fill-rule:nonzero;stroke:none"
             id="path143" />
        </g>
        <g
           id="g145"
           transform="translate(2235.249,791.8464)">
          <path
             d="m 0,0 c 0,-13.53 7.082,-23.148 18.286,-23.148 8.879,0 15.327,5.707 15.327,19.977 0,10.253 -6.237,21.352 -17.969,21.352 C 5.919,18.181 0,10.57 0,0 m 40.061,-1.585 c 0,-15.961 -13.107,-23.995 -23.255,-23.995 -13.952,0 -23.465,10.571 -23.465,22.092 0,17.123 14.375,24.206 23.254,24.206 13.318,0 23.466,-10.042 23.466,-22.303"
             style="fill:#221b19;fill-opacity:1;fill-rule:nonzero;stroke:none"
             id="path147" />
        </g>
        <g
           id="g149"
           transform="translate(2282.8135,768.9094)">
          <path
             d="m 0,0 c 6.131,0.423 7.822,2.008 7.822,8.35 v 21.246 c 0,7.082 -0.74,7.505 -6.659,8.668 v 1.374 c 4.228,1.057 8.456,2.008 11.733,4.439 v -8.773 c 2.114,1.268 4.756,3.171 8.033,5.391 2.959,1.797 5.602,2.96 8.562,2.96 8.773,0 13.741,-5.391 13.741,-13.741 V 8.879 C 43.232,1.48 44.183,0.423 50.103,0 V -1.48 H 29.702 V 0 c 7.188,0.423 8.456,1.903 8.456,8.879 v 17.335 c 0,6.025 -1.691,12.79 -11.415,12.79 -5.18,0 -10.57,-3.171 -13.847,-6.448 V 8.773 c 0,-6.765 1.057,-8.35 8.35,-8.773 V -1.48 H 0 Z"
             style="fill:#221b19;fill-opacity:1;fill-rule:nonzero;stroke:none"
             id="path151" />
        </g>
      </g>
    </g>
    <text
       xml:space="preserve"
       style="font-style:normal;font-variant:normal;font-weight:normal;font-stretch:normal;font-size:35.2778px;line-height:1.25;font-family:sans-serif;-inkscape-font-specification:'sans-serif, Normal';font-variant-ligatures:normal;font-variant-caps:normal;font-variant-numeric:normal;font-variant-east-asian:normal;fill:#000000;fill-opacity:1;stroke:none;stroke-width:0.264583"
       x="14.895816"
       y="207.34743"
       id="text2159"><tspan
         sodipodi:role="line"
         id="tspan2157"
         style="font-style:normal;font-variant:normal;font-weight:normal;font-stretch:normal;font-size:35.2778px;font-family:sans-serif;-inkscape-font-specification:'sans-serif, Normal';font-variant-ligatures:normal;font-variant-caps:normal;font-variant-numeric:normal;font-variant-east-asian:normal;stroke-width:0.264583"
         x="14.895816"
         y="207.34743">A</tspan></text>
  </g>
</svg>
