<?xml version="1.0" encoding="UTF-8" standalone="no"?>
<!-- Created with Inkscape (http://www.inkscape.org/) -->

<svg
   width="297mm"
   height="305mm"
   viewBox="0 0 297 305"
   version="1.1"
   id="svg2633"
   sodipodi:docname="绘图-1.svg"
   inkscape:version="1.1.2 (b8e25be8, 2022-02-05)"
   xmlns:inkscape="http://www.inkscape.org/namespaces/inkscape"
   xmlns:sodipodi="http://sodipodi.sourceforge.net/DTD/sodipodi-0.dtd"
   xmlns="http://www.w3.org/2000/svg"
   xmlns:svg="http://www.w3.org/2000/svg">
  <sodipodi:namedview
     id="namedview2635"
     pagecolor="#ffffff"
     bordercolor="#666666"
     borderopacity="1.0"
     inkscape:pageshadow="2"
     inkscape:pageopacity="0.0"
     inkscape:pagecheckerboard="0"
     inkscape:document-units="mm"
     showgrid="false"
     inkscape:zoom="0.45581268"
     inkscape:cx="392.70518"
     inkscape:cy="696.55807"
     inkscape:window-width="1792"
     inkscape:window-height="997"
     inkscape:window-x="0"
     inkscape:window-y="25"
     inkscape:window-maximized="1"
     inkscape:current-layer="layer1" />
  <defs
     id="defs2630">
    <clipPath
       clipPathUnits="userSpaceOnUse"
       id="clipPath858">
      <path
         d="M 0,1468.986 H 1318.6 V 0 H 0 Z"
         id="path856" />
    </clipPath>
  </defs>
  <g
     inkscape:label="图层 1"
     inkscape:groupmode="layer"
     id="layer1">
    <g
       id="g832"
       transform="matrix(0.35277777,0,0,-0.35277777,4.9267691,88.841956)">
      <path
         d="M 0,0 V 200.353 M 0,0 v -457.682"
         style="fill:none;stroke:#39a94a;stroke-width:0.567;stroke-linecap:butt;stroke-linejoin:bevel;stroke-miterlimit:22.926;stroke-dasharray:none;stroke-opacity:1"
         id="path834" />
    </g>
    <g
       id="g836"
       transform="matrix(0.35277777,0,0,-0.35277777,76.106921,18.046664)">
      <path
         d="M 0,0 V -196.428"
         style="fill:none;stroke:#39a94a;stroke-width:0.567;stroke-linecap:butt;stroke-linejoin:bevel;stroke-miterlimit:22.926;stroke-dasharray:none;stroke-opacity:1"
         id="path838" />
    </g>
    <g
       id="g840"
       transform="matrix(0.35277777,0,0,-0.35277777,217.68398,250.72763)">
      <path
         d="M 0,0 -7.985,-18.636"
         style="fill:none;stroke:#39a94a;stroke-width:0.567;stroke-linecap:butt;stroke-linejoin:bevel;stroke-miterlimit:22.926;stroke-dasharray:none;stroke-opacity:1"
         id="path842" />
    </g>
    <g
       id="g844"
       transform="matrix(0.35277777,0,0,-0.35277777,214.86691,257.30157)">
      <path
         d="M 0,0 -46.914,-81.044"
         style="fill:none;stroke:#39a94a;stroke-width:0.567;stroke-linecap:butt;stroke-linejoin:bevel;stroke-miterlimit:22.926;stroke-dasharray:none;stroke-opacity:1"
         id="path846" />
    </g>
    <g
       id="g848"
       transform="matrix(0.35277777,0,0,-0.35277777,198.3167,296.89192)">
      <path
         d="M 0,0 V 31.182"
         style="fill:none;stroke:#39a94a;stroke-width:0.567;stroke-linecap:butt;stroke-linejoin:bevel;stroke-miterlimit:22.926;stroke-dasharray:none;stroke-opacity:1"
         id="path850" />
    </g>
    <g
       id="g852"
       transform="matrix(0.35277777,0,0,-0.35277777,-88.454846,383.60769)">
      <g
         id="g854"
         clip-path="url(#clipPath858)">
        <g
           id="g860"
           transform="translate(804.3918,237.3046)">
          <path
             d="M 0,0 C 4.695,0 8.504,3.808 8.504,8.505"
             style="fill:none;stroke:#39a94a;stroke-width:0.567;stroke-linecap:butt;stroke-linejoin:bevel;stroke-miterlimit:22.926;stroke-dasharray:none;stroke-opacity:1"
             id="path862" />
        </g>
        <g
           id="g864"
           transform="translate(733.8664,237.3046)">
          <path
             d="M 0,0 H 70.524"
             style="fill:none;stroke:#39a94a;stroke-width:0.567;stroke-linecap:butt;stroke-linejoin:bevel;stroke-miterlimit:22.926;stroke-dasharray:none;stroke-opacity:1"
             id="path866" />
        </g>
        <g
           id="g868"
           transform="translate(725.3615,245.8085)">
          <path
             d="m 0,0 c 0,-2.256 0.896,-4.419 2.49,-6.014 1.596,-1.593 3.759,-2.49 6.015,-2.49"
             style="fill:none;stroke:#39a94a;stroke-width:0.567;stroke-linecap:butt;stroke-linejoin:bevel;stroke-miterlimit:22.926;stroke-dasharray:none;stroke-opacity:1"
             id="path870" />
        </g>
        <g
           id="g872"
           transform="translate(678.4484,358.0331)">
          <path
             d="M 0,0 46.912,-81.044"
             style="fill:none;stroke:#39a94a;stroke-width:0.567;stroke-linecap:butt;stroke-linejoin:bevel;stroke-miterlimit:22.926;stroke-dasharray:none;stroke-opacity:1"
             id="path874" />
        </g>
        <g
           id="g876"
           transform="translate(725.3615,276.9892)">
          <path
             d="M 0,0 V -31.181"
             style="fill:none;stroke:#39a94a;stroke-width:0.567;stroke-linecap:butt;stroke-linejoin:bevel;stroke-miterlimit:22.926;stroke-dasharray:none;stroke-opacity:1"
             id="path878" />
        </g>
        <g
           id="g880"
           transform="translate(670.4621,376.6679)">
          <path
             d="M 0,0 C -0.547,1.276 -1.919,1.993 -3.28,1.715 -4.643,1.436 -5.62,0.235 -5.62,-1.154"
             style="fill:none;stroke:#39a94a;stroke-width:0.567;stroke-linecap:butt;stroke-linejoin:bevel;stroke-miterlimit:22.926;stroke-dasharray:none;stroke-opacity:1"
             id="path882" />
        </g>
        <g
           id="g884"
           transform="translate(570.193,293.998)">
          <path
             d="M 0,0 C 0,-2.256 0.896,-4.419 2.491,-6.014 4.086,-7.607 6.25,-8.505 8.504,-8.505"
             style="fill:none;stroke:#39a94a;stroke-width:0.567;stroke-linecap:butt;stroke-linejoin:bevel;stroke-miterlimit:22.926;stroke-dasharray:none;stroke-opacity:1"
             id="path886" />
        </g>
        <g
           id="g888"
           transform="translate(570.193,321.1816)">
          <path
             d="M 0,0 V -27.185"
             style="fill:none;stroke:#39a94a;stroke-width:0.567;stroke-linecap:butt;stroke-linejoin:bevel;stroke-miterlimit:22.926;stroke-dasharray:none;stroke-opacity:1"
             id="path890" />
        </g>
        <g
           id="g892"
           transform="translate(664.842,375.5136)">
          <path
             d="M 0,0 V -90.021"
             style="fill:none;stroke:#39a94a;stroke-width:0.567;stroke-linecap:butt;stroke-linejoin:bevel;stroke-miterlimit:22.926;stroke-dasharray:none;stroke-opacity:1"
             id="path894" />
        </g>
        <g
           id="g896"
           transform="translate(578.6974,285.4941)">
          <path
             d="M 0,0 H 86.145"
             style="fill:none;stroke:#39a94a;stroke-width:0.567;stroke-linecap:butt;stroke-linejoin:bevel;stroke-miterlimit:22.926;stroke-dasharray:none;stroke-opacity:1"
             id="path898" />
        </g>
        <g
           id="g900"
           transform="translate(670.4621,376.6679)">
          <path
             d="M 0,0 7.985,-18.636"
             style="fill:none;stroke:#39a94a;stroke-width:0.567;stroke-linecap:butt;stroke-linejoin:bevel;stroke-miterlimit:22.926;stroke-dasharray:none;stroke-opacity:1"
             id="path902" />
        </g>
        <g
           id="g904"
           transform="translate(668.2433,377.8749)">
          <path
             d="M 0,0 H 201.771"
             style="fill:none;stroke:#39a94a;stroke-width:0.567;stroke-linecap:butt;stroke-linejoin:bevel;stroke-miterlimit:22.926;stroke-dasharray:none;stroke-opacity:1"
             id="path906" />
        </g>
        <g
           id="g908"
           transform="translate(665.4093,835.5566)">
          <path
             d="M 0,0 H 68.285"
             style="fill:none;stroke:#39a94a;stroke-width:0.567;stroke-linecap:butt;stroke-linejoin:bevel;stroke-miterlimit:22.926;stroke-dasharray:none;stroke-opacity:1"
             id="path910" />
        </g>
        <g
           id="g912"
           transform="translate(804.5618,835.5566)">
          <path
             d="M 0,0 H 68.287"
             style="fill:none;stroke:#39a94a;stroke-width:0.567;stroke-linecap:butt;stroke-linejoin:bevel;stroke-miterlimit:22.926;stroke-dasharray:none;stroke-opacity:1"
             id="path914" />
        </g>
        <g
           id="g916"
           transform="translate(733.6945,835.5566)">
          <path
             d="M 0,0 H 70.867"
             style="fill:none;stroke:#39a94a;stroke-width:0.567;stroke-linecap:butt;stroke-linejoin:bevel;stroke-miterlimit:22.926;stroke-dasharray:none;stroke-opacity:1"
             id="path918" />
        </g>
        <g
           id="g920"
           transform="translate(264.7038,838.391)">
          <path
             d="M 0,0 H 201.771"
             style="fill:none;stroke:#39a94a;stroke-width:0.567;stroke-linecap:butt;stroke-linejoin:bevel;stroke-miterlimit:22.926;stroke-dasharray:none;stroke-opacity:1"
             id="path922" />
        </g>
        <g
           id="g924"
           transform="translate(470.7262,835.5566)">
          <path
             d="M 0,0 H 194.682"
             style="fill:none;stroke:#39a94a;stroke-width:0.567;stroke-linecap:butt;stroke-linejoin:bevel;stroke-miterlimit:22.926;stroke-dasharray:none;stroke-opacity:1"
             id="path926" />
        </g>
        <g
           id="g928"
           transform="translate(264.7038,377.8749)">
          <path
             d="M 0,0 H 201.771"
             style="fill:none;stroke:#39a94a;stroke-width:0.567;stroke-linecap:butt;stroke-linejoin:bevel;stroke-miterlimit:22.926;stroke-dasharray:none;stroke-opacity:1"
             id="path930" />
        </g>
        <g
           id="g932"
           transform="translate(466.4743,377.8749)">
          <path
             d="M 0,0 H 201.77"
             style="fill:none;stroke:#39a94a;stroke-width:0.567;stroke-linecap:butt;stroke-linejoin:bevel;stroke-miterlimit:22.926;stroke-dasharray:none;stroke-opacity:1"
             id="path934" />
        </g>
        <g
           id="g936"
           transform="translate(870.0138,377.8749)">
          <path
             d="M 0,0 H 201.77"
             style="fill:none;stroke:#39a94a;stroke-width:0.567;stroke-linecap:butt;stroke-linejoin:bevel;stroke-miterlimit:22.926;stroke-dasharray:none;stroke-opacity:1"
             id="path938" />
        </g>
        <g
           id="g940"
           transform="translate(870.0138,835.557)">
          <path
             d="M 0,0 H 201.77"
             style="fill:none;stroke:#39a94a;stroke-width:0.567;stroke-linecap:butt;stroke-linejoin:bevel;stroke-miterlimit:22.926;stroke-dasharray:none;stroke-opacity:1"
             id="path942" />
        </g>
        <g
           id="g944"
           transform="translate(466.4743,377.8749)">
          <path
             d="M 0,0 V 460.516"
             style="fill:none;stroke:#39a94a;stroke-width:0.567;stroke-linecap:butt;stroke-linejoin:bevel;stroke-miterlimit:22.926;stroke-dasharray:none;stroke-opacity:1"
             id="path946" />
        </g>
        <g
           id="g948"
           transform="translate(668.2433,377.8749)">
          <path
             d="M 0,0 V 457.682"
             style="fill:none;stroke:#39a94a;stroke-width:0.567;stroke-linecap:butt;stroke-linejoin:bevel;stroke-miterlimit:22.926;stroke-dasharray:none;stroke-opacity:1"
             id="path950" />
        </g>
        <g
           id="g952"
           transform="translate(870.0138,377.8749)">
          <path
             d="M 0,0 V 457.682"
             style="fill:none;stroke:#39a94a;stroke-width:0.567;stroke-linecap:butt;stroke-linejoin:bevel;stroke-miterlimit:22.926;stroke-dasharray:none;stroke-opacity:1"
             id="path954" />
        </g>
        <g
           id="g956"
           transform="translate(476.6789,358.0331)">
          <path
             d="m 0,0 93.515,-36.852 m -248.797,-44.192 h 88.384 M -7.987,18.635 0,-0.001 m -7.987,18.636 c -0.548,1.276 -1.918,1.993 -3.281,1.715 -1.361,-0.28 -2.338,-1.48 -2.338,-2.87 m 0,0 v -138.209 m -53.292,39.685 v -31.181 m 0,0 c 0,-2.255 0.896,-4.419 2.491,-6.013 1.595,-1.594 3.758,-2.491 6.013,-2.491 m 0,0 h 44.788 M -208.574,19.842 v -140.57 m 0,-0.001 h 44.788 m 0,0 c 4.697,0 8.504,3.808 8.504,8.505 m 0,31.18 v -31.181"
             style="fill:none;stroke:#39a94a;stroke-width:0.567;stroke-linecap:butt;stroke-linejoin:bevel;stroke-miterlimit:22.926;stroke-dasharray:none;stroke-opacity:1"
             id="path958" />
        </g>
        <g
           id="g960"
           transform="translate(873.4142,375.5136)">
          <path
             d="M 0,0 C 0,1.39 -0.978,2.59 -2.34,2.869 -3.701,3.147 -5.072,2.431 -5.619,1.154"
             style="fill:none;stroke:#39a94a;stroke-width:0.567;stroke-linecap:butt;stroke-linejoin:bevel;stroke-miterlimit:22.926;stroke-dasharray:none;stroke-opacity:1"
             id="path962" />
        </g>
        <g
           id="g964"
           transform="translate(959.5587,285.4931)">
          <path
             d="M 0,0 C 2.255,0 4.418,0.897 6.014,2.491 7.608,4.086 8.505,6.249 8.505,8.505"
             style="fill:none;stroke:#39a94a;stroke-width:0.567;stroke-linecap:butt;stroke-linejoin:bevel;stroke-miterlimit:22.926;stroke-dasharray:none;stroke-opacity:1"
             id="path966" />
        </g>
        <g
           id="g968"
           transform="translate(968.0636,293.997)">
          <path
             d="M 0,0 V 27.185"
             style="fill:none;stroke:#39a94a;stroke-width:0.567;stroke-linecap:butt;stroke-linejoin:bevel;stroke-miterlimit:22.926;stroke-dasharray:none;stroke-opacity:1"
             id="path970" />
        </g>
        <g
           id="g972"
           transform="translate(873.4142,285.4931)">
          <path
             d="M 0,0 V 90.021"
             style="fill:none;stroke:#39a94a;stroke-width:0.567;stroke-linecap:butt;stroke-linejoin:bevel;stroke-miterlimit:22.926;stroke-dasharray:none;stroke-opacity:1"
             id="path974" />
        </g>
        <g
           id="g976"
           transform="translate(873.4142,285.4941)">
          <path
             d="M 0,0 H 86.145"
             style="fill:none;stroke:#39a94a;stroke-width:0.567;stroke-linecap:butt;stroke-linejoin:bevel;stroke-miterlimit:22.926;stroke-dasharray:none;stroke-opacity:1"
             id="path978" />
        </g>
        <g
           id="g980"
           transform="translate(1061.5782,358.0321)">
          <path
             d="m 0,0 7.986,18.635 2.218,1.208 v 457.682"
             style="fill:none;stroke:#39a94a;stroke-width:0.567;stroke-linecap:butt;stroke-linejoin:bevel;stroke-miterlimit:22.926;stroke-dasharray:none;stroke-opacity:1"
             id="path982" />
        </g>
        <g
           id="g984"
           transform="translate(968.0627,321.1816)">
          <path
             d="M 0,0 93.515,36.852"
             style="fill:none;stroke:#39a94a;stroke-width:0.567;stroke-linecap:butt;stroke-linejoin:bevel;stroke-miterlimit:22.926;stroke-dasharray:none;stroke-opacity:1"
             id="path986" />
        </g>
        <g
           id="g988"
           transform="translate(288.798,1082.1132)">
          <path
             d="m 0,0 c -5.639,0 -11.045,-2.24 -15.033,-6.227 -3.987,-3.987 -6.227,-9.395 -6.227,-15.033"
             style="fill:none;stroke:#39a94a;stroke-width:0.567;stroke-linecap:butt;stroke-linejoin:bevel;stroke-miterlimit:22.926;stroke-dasharray:none;stroke-opacity:1"
             id="path990" />
        </g>
        <g
           id="g992"
           transform="translate(288.798,1082.1132)">
          <path
             d="M 0,0 H 153.581"
             style="fill:none;stroke:#39a94a;stroke-width:0.567;stroke-linecap:butt;stroke-linejoin:bevel;stroke-miterlimit:22.926;stroke-dasharray:none;stroke-opacity:1"
             id="path994" />
        </g>
        <g
           id="g996"
           transform="translate(463.6393,1060.8534)">
          <path
             d="m 0,0 c 0,5.638 -2.24,11.046 -6.228,15.033 -3.986,3.987 -9.394,6.227 -15.032,6.227"
             style="fill:none;stroke:#39a94a;stroke-width:0.567;stroke-linecap:butt;stroke-linejoin:bevel;stroke-miterlimit:22.926;stroke-dasharray:none;stroke-opacity:1"
             id="path998" />
        </g>
        <g
           id="g1000"
           transform="translate(267.5387,1035.9091)">
          <path
             d="M 0,0 V 24.944"
             style="fill:none;stroke:#39a94a;stroke-width:0.567;stroke-linecap:butt;stroke-linejoin:bevel;stroke-miterlimit:22.926;stroke-dasharray:none;stroke-opacity:1"
             id="path1002" />
        </g>
        <g
           id="g1004"
           transform="translate(463.6393,1060.8534)">
          <path
             d="M 0,0 V -24.886"
             style="fill:none;stroke:#39a94a;stroke-width:0.567;stroke-linecap:butt;stroke-linejoin:bevel;stroke-miterlimit:22.926;stroke-dasharray:none;stroke-opacity:1"
             id="path1006" />
        </g>
        <g
           id="g1008"
           transform="translate(264.7038,1035.9091)">
          <path
             d="M 0,0 H 22.677"
             style="fill:none;stroke:#39a94a;stroke-width:0.567;stroke-linecap:butt;stroke-linejoin:bevel;stroke-miterlimit:22.926;stroke-dasharray:none;stroke-opacity:1"
             id="path1010" />
        </g>
        <g
           id="g1012"
           transform="translate(443.797,1035.9672)">
          <path
             d="M 0,0 H 22.677"
             style="fill:none;stroke:#39a94a;stroke-width:0.567;stroke-linecap:butt;stroke-linejoin:bevel;stroke-miterlimit:22.926;stroke-dasharray:none;stroke-opacity:1"
             id="path1014" />
        </g>
        <g
           id="g1016"
           transform="translate(287.381,1035.9086)">
          <path
             d="M 0,0 H 42.066"
             style="fill:none;stroke:#39a94a;stroke-width:0.567;stroke-linecap:butt;stroke-linejoin:bevel;stroke-miterlimit:22.926;stroke-dasharray:none;stroke-opacity:1"
             id="path1018" />
        </g>
        <g
           id="g1020"
           transform="translate(401.7306,1035.9086)">
          <path
             d="M 0,0 H 42.066"
             style="fill:none;stroke:#39a94a;stroke-width:0.567;stroke-linecap:butt;stroke-linejoin:bevel;stroke-miterlimit:22.926;stroke-dasharray:none;stroke-opacity:1"
             id="path1022" />
        </g>
        <g
           id="g1024"
           transform="translate(401.7306,1035.9086)">
          <path
             d="M 0,0 H -72.283"
             style="fill:none;stroke:#39a94a;stroke-width:0.567;stroke-linecap:butt;stroke-linejoin:bevel;stroke-miterlimit:22.926;stroke-dasharray:none;stroke-opacity:1"
             id="path1026" />
        </g>
        <g
           id="g1028"
           transform="translate(466.4743,839.8085)">
          <path
             d="M 0,0 C 0,-2.349 1.904,-4.252 4.252,-4.252 6.6,-4.252 8.504,-2.349 8.504,0"
             style="fill:none;stroke:#39a94a;stroke-width:0.567;stroke-linecap:butt;stroke-linejoin:bevel;stroke-miterlimit:22.926;stroke-dasharray:none;stroke-opacity:1"
             id="path1030" />
        </g>
        <g
           id="g1032"
           transform="translate(474.9782,839.8085)">
          <path
             d="M 0,0 V 66.614"
             style="fill:none;stroke:#39a94a;stroke-width:0.567;stroke-linecap:butt;stroke-linejoin:bevel;stroke-miterlimit:22.926;stroke-dasharray:none;stroke-opacity:1"
             id="path1034" />
        </g>
        <g
           id="g1036"
           transform="translate(653.6525,892.2499)">
          <path
             d="M 0,0 5.743,-33.672"
             style="fill:none;stroke:#39a94a;stroke-width:0.567;stroke-linecap:butt;stroke-linejoin:bevel;stroke-miterlimit:22.926;stroke-dasharray:none;stroke-opacity:1"
             id="path1038" />
        </g>
        <g
           id="g1040"
           transform="translate(659.3957,858.578)">
          <path
             d="M 0,0 6.013,-6.013"
             style="fill:none;stroke:#39a94a;stroke-width:0.567;stroke-linecap:butt;stroke-linejoin:bevel;stroke-miterlimit:22.926;stroke-dasharray:none;stroke-opacity:1"
             id="path1042" />
        </g>
        <g
           id="g1044"
           transform="translate(665.4093,852.5644)">
          <path
             d="M 0,0 V -17.008"
             style="fill:none;stroke:#39a94a;stroke-width:0.567;stroke-linecap:butt;stroke-linejoin:bevel;stroke-miterlimit:22.926;stroke-dasharray:none;stroke-opacity:1"
             id="path1046" />
        </g>
        <g
           id="g1048"
           transform="translate(474.9782,839.8085)">
          <path
             d="M 0,0 V 67.2"
             style="fill:none;stroke:#39a94a;stroke-width:0.567;stroke-linecap:butt;stroke-linejoin:bevel;stroke-miterlimit:22.926;stroke-dasharray:none;stroke-opacity:1"
             id="path1050" />
        </g>
        <g
           id="g1052"
           transform="translate(659.3957,858.578)">
          <path
             d="M 0,0 -8.167,47.839"
             style="fill:none;stroke:#39a94a;stroke-width:0.567;stroke-linecap:butt;stroke-linejoin:bevel;stroke-miterlimit:22.926;stroke-dasharray:none;stroke-opacity:1"
             id="path1054" />
        </g>
        <g
           id="g1056"
           transform="translate(646.2336,912.1064)">
          <path
             d="m 0,0 h -104.704 m 0,0 h -60.868"
             style="fill:none;stroke:#39a94a;stroke-width:0.567;stroke-linecap:butt;stroke-linejoin:bevel;stroke-miterlimit:22.926;stroke-dasharray:none;stroke-opacity:1"
             id="path1058" />
        </g>
        <g
           id="g1060"
           transform="translate(474.9782,906.4228)">
          <path
             d="M 0,0 C 0,1.507 0.599,2.953 1.665,4.019 2.73,5.084 4.176,5.683 5.683,5.683"
             style="fill:none;stroke:#39a94a;stroke-width:0.567;stroke-linecap:butt;stroke-linejoin:bevel;stroke-miterlimit:22.926;stroke-dasharray:none;stroke-opacity:1"
             id="path1062" />
        </g>
        <g
           id="g1064"
           transform="translate(645.3781,912.1064)">
          <path
             d="M 0,0 C 1.507,0 3.122,-0.604 4.187,-1.669 5.253,-2.735 5.852,-4.181 5.852,-5.688"
             style="fill:none;stroke:#39a94a;stroke-width:0.567;stroke-linecap:butt;stroke-linejoin:bevel;stroke-miterlimit:22.926;stroke-dasharray:none;stroke-opacity:1"
             id="path1066" />
        </g>
        <g
           id="g1068"
           transform="translate(1063.297,839.8085)">
          <path
             d="M 0,0 V 66.614"
             style="fill:none;stroke:#39a94a;stroke-width:0.567;stroke-linecap:butt;stroke-linejoin:bevel;stroke-miterlimit:22.926;stroke-dasharray:none;stroke-opacity:1"
             id="path1070" />
        </g>
        <g
           id="g1072"
           transform="translate(884.6232,892.2499)">
          <path
             d="M 0,0 -5.743,-33.672"
             style="fill:none;stroke:#39a94a;stroke-width:0.567;stroke-linecap:butt;stroke-linejoin:bevel;stroke-miterlimit:22.926;stroke-dasharray:none;stroke-opacity:1"
             id="path1074" />
        </g>
        <g
           id="g1076"
           transform="translate(878.8791,858.578)">
          <path
             d="M 0,0 -6.013,-6.013"
             style="fill:none;stroke:#39a94a;stroke-width:0.567;stroke-linecap:butt;stroke-linejoin:bevel;stroke-miterlimit:22.926;stroke-dasharray:none;stroke-opacity:1"
             id="path1078" />
        </g>
        <g
           id="g1080"
           transform="translate(872.8664,852.5644)">
          <path
             d="M 0,0 V -17.008"
             style="fill:none;stroke:#39a94a;stroke-width:0.567;stroke-linecap:butt;stroke-linejoin:bevel;stroke-miterlimit:22.926;stroke-dasharray:none;stroke-opacity:1"
             id="path1082" />
        </g>
        <g
           id="g1084"
           transform="translate(1063.297,907.0087)">
          <path
             d="m 0,0 v -67.2 l 8.485,-4.252"
             style="fill:none;stroke:#39a94a;stroke-width:0.567;stroke-linecap:butt;stroke-linejoin:bevel;stroke-miterlimit:22.926;stroke-dasharray:none;stroke-opacity:1"
             id="path1086" />
        </g>
        <g
           id="g1088"
           transform="translate(878.8791,858.578)">
          <path
             d="M 0,0 8.168,47.839"
             style="fill:none;stroke:#39a94a;stroke-width:0.567;stroke-linecap:butt;stroke-linejoin:bevel;stroke-miterlimit:22.926;stroke-dasharray:none;stroke-opacity:1"
             id="path1090" />
        </g>
        <g
           id="g1092"
           transform="translate(996.7462,912.1064)">
          <path
             d="M 0,0 H -104.704 M 60.867,0 H 0"
             style="fill:none;stroke:#39a94a;stroke-width:0.567;stroke-linecap:butt;stroke-linejoin:bevel;stroke-miterlimit:22.926;stroke-dasharray:none;stroke-opacity:1"
             id="path1094" />
        </g>
        <g
           id="g1096"
           transform="translate(1063.297,906.4228)">
          <path
             d="M 0,0 C 0,1.507 -0.599,2.953 -1.665,4.019 -2.729,5.084 -4.176,5.683 -5.683,5.683"
             style="fill:none;stroke:#39a94a;stroke-width:0.567;stroke-linecap:butt;stroke-linejoin:bevel;stroke-miterlimit:22.926;stroke-dasharray:none;stroke-opacity:1"
             id="path1098" />
        </g>
        <g
           id="g1100"
           transform="translate(892.8976,912.1064)">
          <path
             d="M 0,0 C -1.507,0 -3.122,-0.604 -4.187,-1.669 -5.253,-2.735 -5.852,-4.181 -5.852,-5.688"
             style="fill:none;stroke:#39a94a;stroke-width:0.567;stroke-linecap:butt;stroke-linejoin:bevel;stroke-miterlimit:22.926;stroke-dasharray:none;stroke-opacity:1"
             id="path1102" />
        </g>
        <g
           id="g1104"
           transform="translate(322.9122,956.9847)">
          <path
             d="m 0,0 c 1.337,-10.46 3.439,-17.1 7.117,-22.019 4.108,5.731 6.114,14.233 6.687,22.019 z m 24.694,-33.817 c -2.961,0 -4.155,-0.287 -5.254,-1.242 -0.143,-0.143 -0.238,-0.191 -0.382,-0.191 -0.143,0 -0.286,0.048 -0.525,0.191 -4.872,2.818 -7.834,5.063 -11.559,9.744 -4.347,-4.777 -9.935,-8.837 -17.387,-11.75 l -0.191,0.716 c 6.449,3.153 12.419,7.929 16.384,12.61 C 1.863,-18.151 0.048,-11.225 -0.955,0 h -1.529 c -1.003,0 -2.388,-0.191 -3.2,-0.525 l -1.337,1.767 c 1.194,-0.096 2.388,-0.191 3.486,-0.191 h 16.623 l 1.862,2.484 3.01,-2.771 c 0.238,-0.238 0.382,-0.43 0.382,-0.525 0,-0.143 -0.096,-0.239 -0.287,-0.334 l -1.767,-1.099 c -2.054,-12.323 -4.156,-17.912 -7.881,-22.449 4.633,-5.35 9.839,-8.55 16.287,-9.649 z M -4.92,5.159 c 0.335,-0.239 0.526,-0.382 0.526,-0.526 0,-0.143 -0.239,-0.286 -0.669,-0.43 -0.812,-0.238 -1.194,-0.525 -1.624,-1.385 -1.911,-3.725 -3.535,-6.639 -5.015,-9.075 l 1.958,-0.955 c 0.287,-0.144 0.43,-0.287 0.43,-0.383 0,-0.143 -0.86,-0.812 -1.385,-1.241 v -17.912 c 0,-2.962 0.048,-5.398 0.191,-7.547 v -0.382 c 0,-0.621 -0.143,-0.812 -1.147,-1.242 -0.429,-0.191 -0.764,-0.287 -1.003,-0.287 -0.334,0 -0.429,0.239 -0.429,0.908 v 0.621 c 0.143,2.818 0.191,5.541 0.191,8.024 v 18.438 c -2.389,-3.678 -4.586,-6.305 -7.499,-9.315 l -0.43,0.383 c 5.684,7.881 10.174,15.475 12.848,24.36 z"
             style="fill:#221b19;fill-opacity:1;fill-rule:nonzero;stroke:none"
             id="path1106" />
        </g>
        <g
           id="g1108"
           transform="translate(349.7083,924.6481)">
          <path
             d="m 0,0 c 3.057,0.191 3.535,0.86 3.535,3.821 v 22.354 c 0,3.296 -0.383,3.63 -3.44,3.917 v 0.573 c 2.341,0.286 4.92,1.146 5.732,1.624 V 3.821 C 5.827,0.86 6.257,0.191 9.41,0 V -0.669 H 0 Z"
             style="fill:#221b19;fill-opacity:1;fill-rule:nonzero;stroke:none"
             id="path1110" />
        </g>
        <g
           id="g1112"
           transform="translate(364.7539,935.013)">
          <path
             d="m 0,0 c 0,-6.114 3.2,-10.46 8.263,-10.46 4.012,0 6.926,2.579 6.926,9.027 0,4.633 -2.818,9.649 -8.12,9.649 C 2.675,8.216 0,4.776 0,0 m 18.103,-0.716 c 0,-7.213 -5.923,-10.843 -10.508,-10.843 -6.305,0 -10.604,4.777 -10.604,9.983 0,7.738 6.496,10.938 10.508,10.938 6.018,0 10.604,-4.538 10.604,-10.078"
             style="fill:#221b19;fill-opacity:1;fill-rule:nonzero;stroke:none"
             id="path1114" />
        </g>
        <g
           id="g1116"
           transform="translate(390.2598,937.9744)">
          <path
             d="m 0,0 c 0,-4.442 2.197,-6.83 5.159,-6.83 2.149,0 4.298,1.528 4.298,5.588 0,4.299 -1.719,6.735 -4.967,6.735 C 1.863,5.445 0,3.582 0,0 m -1.529,-19.01 c 0,-3.009 2.771,-5.446 6.783,-5.446 5.397,0 7.881,2.962 7.881,6.305 0,1.529 -0.764,2.866 -2.006,3.535 -1.337,0.764 -2.961,0.812 -5.588,0.812 -6.831,0 -7.07,-4.394 -7.07,-5.206 M 10.747,3.678 c 0.955,-1.003 1.624,-2.627 1.624,-4.06 0,-5.015 -4.49,-7.404 -7.881,-7.404 -0.478,0 -1.003,0.048 -1.72,0.144 C 1.576,-8.072 0,-9.075 0,-10.078 c 0,-0.908 1.099,-1.768 2.961,-1.768 2.007,0 3.869,0.191 5.684,0.191 3.296,0 6.687,-0.955 6.687,-5.349 0,-4.347 -5.206,-9.123 -11.463,-9.123 -5.254,0 -8.12,3.057 -8.12,6.114 0,1.194 0.478,2.053 0.955,2.77 0.956,1.099 3.153,2.627 4.204,3.487 -1.959,0.43 -4.156,2.101 -3.965,4.108 1.481,0.429 3.726,1.719 4.442,2.483 -2.149,0.717 -4.346,3.009 -4.346,5.78 0,6.496 7.212,9.6 11.988,6.591 2.437,0.191 4.299,0.43 6.401,0.812 L 15.715,5.636 C 15.141,5.015 14.234,3.964 13.565,3.678 Z"
             style="fill:#221b19;fill-opacity:1;fill-rule:nonzero;stroke:none"
             id="path1118" />
        </g>
        <g
           id="g1120"
           transform="translate(410.9889,935.013)">
          <path
             d="m 0,0 c 0,-6.114 3.2,-10.46 8.263,-10.46 4.013,0 6.926,2.579 6.926,9.027 0,4.633 -2.818,9.649 -8.12,9.649 C 2.675,8.216 0,4.776 0,0 m 18.103,-0.716 c 0,-7.213 -5.923,-10.843 -10.508,-10.843 -6.305,0 -10.604,4.777 -10.604,9.983 0,7.738 6.496,10.938 10.508,10.938 6.019,0 10.604,-4.538 10.604,-10.078"
             style="fill:#221b19;fill-opacity:1;fill-rule:nonzero;stroke:none"
             id="path1122" />
        </g>
        <path
           d="m 351.503,675.256 h -11.686 v -14.32 h 11.686 z m 4.609,0.823 c 0.219,-0.165 0.329,-0.275 0.329,-0.439 0,-0.11 -0.11,-0.22 -0.329,-0.384 l -2.031,-1.152 v -12.565 c 0,-2.14 0.11,-3.786 0.275,-5.212 v -0.165 c 0,-0.878 -2.414,-1.426 -2.414,-1.426 -0.385,0 -0.439,0.274 -0.439,0.823 v 4.17 h -11.687 v -5.048 c 0,-0.549 -0.164,-0.659 -1.207,-1.043 -0.494,-0.164 -0.823,-0.274 -1.043,-0.274 -0.384,0 -0.493,0.219 -0.493,0.823 v 0.274 c 0.109,1.811 0.164,4.554 0.164,6.31 v 15.472 c 0,0.714 -0.055,2.195 -0.164,3.182 l 3.456,-2.962 h 9.986 l 1.975,2.524 z m -12.62,22.824 h -19.533 v -12.619 h 19.533 z m 4.719,0.878 c 0.274,-0.165 0.384,-0.329 0.384,-0.439 0,-0.11 -0.11,-0.219 -0.384,-0.384 l -2.14,-1.152 v -9.766 c 0,-0.823 0.384,-4.884 0.384,-5.322 0,-0.494 -0.274,-0.714 -1.481,-1.153 -0.439,-0.164 -0.769,-0.219 -0.988,-0.219 -0.384,0 -0.494,0.274 -0.494,0.987 v 2.744 H 323.96 v -2.908 c 0,-0.604 -0.11,-0.768 -1.207,-1.098 -0.494,-0.164 -0.823,-0.219 -1.043,-0.219 -0.384,0 -0.494,0.219 -0.494,0.713 v 0.329 c 0.11,1.811 0.165,4.5 0.165,6.255 v 11.906 c 0,0.714 -0.055,2.195 -0.165,3.183 l 3.512,-3.128 h 17.722 l 1.92,2.634 z m -21.563,-24.635 h -10.644 v -14.211 h 10.644 z m 4.39,0.878 c 0.219,-0.165 0.329,-0.329 0.329,-0.439 0,-0.165 -0.11,-0.274 -0.329,-0.439 l -1.811,-0.988 v -12.07 c 0,-2.14 0.11,-3.622 0.274,-5.048 v -0.165 c 0,-0.493 -0.219,-0.713 -1.371,-1.207 -0.494,-0.219 -0.823,-0.329 -1.043,-0.329 -0.384,0 -0.439,0.274 -0.439,0.878 v 3.512 h -10.644 v -5.103 c 0,-0.549 -0.11,-0.713 -1.207,-1.043 -0.439,-0.164 -0.768,-0.219 -0.988,-0.219 -0.384,0 -0.493,0.274 -0.493,0.768 v 0.329 c 0.109,1.811 0.164,4.335 0.164,6.091 v 15.636 c 0,0.714 -0.055,2.195 -0.164,3.183 l 3.456,-3.018 h 9.053 l 1.646,2.414 z"
           style="fill:#221b19;fill-opacity:1;fill-rule:nonzero;stroke:none"
           id="path1124" />
        <g
           id="g1126"
           transform="translate(405.9852,658.1373)">
          <path
             d="m 0,0 v 13.717 h -23.647 l -0.22,-0.165 V 0 Z m -23.922,32.262 c 5.542,-2.744 7.956,-4.774 7.956,-7.243 0,-1.536 -0.878,-2.579 -1.811,-2.579 -0.658,0 -0.878,0.275 -1.317,1.811 -0.493,1.756 -2.304,4.773 -5.267,7.517 z M 4.28,14.924 c 0.274,-0.22 0.439,-0.329 0.439,-0.494 0,-0.165 -0.165,-0.329 -0.439,-0.549 L 2.689,12.894 v -8.56 c 0,-3.182 0.109,-4.883 0.274,-7.352 V -3.347 C 2.963,-4.17 2.689,-4.334 1.372,-4.883 0.878,-5.103 0.549,-5.158 0.384,-5.158 0.055,-5.158 0,-4.938 0,-4.499 v 3.292 h -23.867 v -2.634 c 0,-0.658 -0.165,-0.987 -1.097,-1.371 -0.494,-0.22 -0.878,-0.33 -1.152,-0.33 -0.384,0 -0.494,0.275 -0.494,1.043 0,0.823 0.164,4.609 0.164,5.487 V 12.18 C -31,9.766 -36.102,7.572 -41.753,5.651 l -0.33,0.768 c 18.436,7.956 31.604,17.558 40.053,29.519 H -22.879 C -28.366,28.421 -32.975,22.77 -37.693,18.929 l -0.604,0.549 c 6.694,6.913 13.388,17.557 17.832,26.335 l 3.237,-2.084 c 0.384,-0.275 0.549,-0.439 0.549,-0.604 0,-0.219 -0.275,-0.384 -0.823,-0.603 -0.823,-0.275 -1.153,-0.549 -2.03,-1.811 -0.878,-1.262 -1.701,-2.469 -2.524,-3.621 H -2.25 l 1.866,2.14 3.182,-3.018 C 3.073,35.938 3.237,35.773 3.237,35.608 3.237,35.389 2.963,35.279 2.524,35.169 1.317,34.895 0.384,34.182 -0.823,32.755 -5.596,26.83 -12.29,20.52 -21.563,14.924 h 20.356 l 1.756,2.688 z"
             style="fill:#221b19;fill-opacity:1;fill-rule:nonzero;stroke:none"
             id="path1128" />
        </g>
        <g
           id="g1130"
           transform="translate(937.5692,733.3921)">
          <path
             d="m 0,0 c 4.702,-1.482 6.593,-2.811 6.593,-4.957 0,-1.533 -1.278,-2.351 -1.942,-2.351 -0.46,0 -0.767,0.664 -0.971,1.329 -0.563,1.891 -2.096,3.986 -3.935,5.468 z m -6.337,-9.965 c 5.008,-2.044 7.206,-4.344 7.206,-5.877 0,-1.585 -1.073,-2.555 -1.533,-2.555 -0.511,0 -1.073,0.357 -1.278,1.175 -0.409,1.686 -2.197,4.855 -4.599,6.695 z m 33.167,2.044 c 0.255,-0.256 0.357,-0.409 0.357,-0.511 0,-0.102 -0.102,-0.154 -0.408,-0.154 h -41.497 c -1.073,0 -2.555,-0.204 -3.424,-0.562 l -1.431,1.891 c 1.278,-0.102 2.555,-0.204 3.731,-0.204 h 36.897 l 1.942,3.117 z m -1.022,-12.112 c 0.204,-0.204 0.306,-0.306 0.306,-0.409 0,-0.102 -0.153,-0.153 -0.409,-0.153 h -35.926 c -0.102,-18.602 -1.482,-20.697 -10.272,-27.801 l -0.511,0.512 c 6.695,6.95 8.177,9.76 8.177,21.412 0,2.709 -0.102,5.928 -0.204,9.761 l 3.372,-2.76 H 6.695 c 1.942,3.68 3.168,6.184 5.161,10.17 l 3.424,-1.942 c 0.307,-0.153 0.46,-0.307 0.46,-0.358 0,-0.102 -0.204,-0.204 -0.613,-0.306 -1.227,-0.307 -2.044,-0.869 -7.359,-7.564 h 12.52 l 1.891,2.964 z"
             style="fill:#221b19;fill-opacity:1;fill-rule:nonzero;stroke:none"
             id="path1132" />
        </g>
        <path
           d="M 1008.195,706.511 H 997.31 v -13.338 h 10.885 z m 4.293,0.767 c 0.204,-0.153 0.306,-0.256 0.306,-0.409 0,-0.102 -0.102,-0.204 -0.306,-0.358 l -1.891,-1.073 v -11.703 c 0,-1.993 0.102,-3.526 0.256,-4.855 v -0.153 c 0,-0.818 -2.249,-1.329 -2.249,-1.329 -0.358,0 -0.409,0.256 -0.409,0.767 v 3.884 H 997.31 v -4.702 c 0,-0.511 -0.153,-0.613 -1.124,-0.971 -0.46,-0.153 -0.767,-0.255 -0.971,-0.255 -0.358,0 -0.46,0.204 -0.46,0.766 v 0.256 c 0.102,1.686 0.153,4.242 0.153,5.877 v 14.411 c 0,0.665 -0.051,2.044 -0.153,2.964 l 3.219,-2.759 h 9.301 l 1.84,2.35 z m -11.754,21.259 h -18.193 v -11.754 h 18.193 z m 4.395,0.818 c 0.255,-0.154 0.358,-0.307 0.358,-0.409 0,-0.102 -0.103,-0.204 -0.358,-0.358 l -1.993,-1.073 v -9.096 c 0,-0.767 0.358,-4.549 0.358,-4.958 0,-0.459 -0.256,-0.664 -1.38,-1.073 -0.409,-0.153 -0.716,-0.204 -0.92,-0.204 -0.358,0 -0.46,0.255 -0.46,0.92 v 2.555 h -18.193 v -2.709 c 0,-0.562 -0.102,-0.715 -1.124,-1.022 -0.46,-0.153 -0.767,-0.204 -0.971,-0.204 -0.358,0 -0.46,0.204 -0.46,0.664 v 0.307 c 0.102,1.686 0.153,4.19 0.153,5.826 v 11.089 c 0,0.665 -0.051,2.044 -0.153,2.964 l 3.27,-2.913 h 16.507 l 1.789,2.454 z m -20.084,-22.946 h -9.914 v -13.236 h 9.914 z m 4.088,0.818 c 0.205,-0.154 0.307,-0.307 0.307,-0.409 0,-0.153 -0.102,-0.256 -0.307,-0.409 l -1.686,-0.92 v -11.243 c 0,-1.993 0.102,-3.372 0.255,-4.701 v -0.154 c 0,-0.459 -0.204,-0.664 -1.277,-1.124 -0.46,-0.204 -0.767,-0.306 -0.971,-0.306 -0.358,0 -0.409,0.255 -0.409,0.817 v 3.271 h -9.914 v -4.753 c 0,-0.511 -0.102,-0.664 -1.125,-0.971 -0.408,-0.153 -0.715,-0.204 -0.919,-0.204 -0.358,0 -0.46,0.255 -0.46,0.715 v 0.307 c 0.102,1.686 0.153,4.037 0.153,5.672 v 14.565 c 0,0.664 -0.051,2.044 -0.153,2.964 l 3.219,-2.811 h 8.432 l 1.534,2.249 z"
           style="fill:#221b19;fill-opacity:1;fill-rule:nonzero;stroke:none"
           id="path1134" />
        <g
           id="g1136"
           transform="translate(943.1394,670.6302)">
          <path
             d="m 0,0 c 4.344,-2.76 5.366,-3.986 5.366,-5.315 0,-1.533 -1.329,-2.913 -2.095,-2.913 -0.613,0 -0.869,0.409 -0.869,1.687 0,1.584 -1.329,4.548 -2.913,6.081 z M 10.834,-31.122 H -5.877 v -9.863 h 16.711 z m 3.577,0.919 c 0.256,-0.204 0.358,-0.357 0.358,-0.511 0,-0.255 -0.153,-0.357 -1.482,-1.328 v -7.308 c 0,-1.738 0.051,-4.037 0.153,-5.57 v -0.205 c 0,-0.613 -0.204,-0.818 -1.328,-1.482 -0.409,-0.255 -0.716,-0.409 -0.92,-0.409 -0.256,0 -0.358,0.256 -0.358,0.767 v 4.139 H -5.877 v -3.321 c 0,-0.869 -2.197,-1.738 -2.3,-1.738 -0.255,0 -0.306,0.204 -0.306,0.715 v 0.614 c 0.102,1.839 0.153,4.446 0.153,6.234 v 6.899 c 0,1.227 -0.051,3.68 -0.153,5.264 l 3.27,-2.555 H 9.812 l 1.635,2.146 z m 0.665,13.952 c 0.409,-0.358 0.562,-0.613 0.562,-0.767 0,-0.255 -0.307,-0.357 -0.767,-0.357 h -20.39 c -1.073,0 -2.555,-0.205 -3.424,-0.562 l -1.431,1.89 c 1.278,-0.102 2.555,-0.204 3.731,-0.204 h 17.171 l 1.686,2.504 z m 1.226,-6.695 c 0.409,-0.357 0.562,-0.613 0.562,-0.766 0,-0.256 -0.306,-0.358 -0.766,-0.358 H -6.746 c -1.073,0 -2.555,-0.204 -3.424,-0.562 l -1.431,1.891 c 1.278,-0.103 2.556,-0.205 3.731,-0.205 h 19.624 l 1.686,2.504 z m 3.067,13.952 c 0.408,-0.358 0.613,-0.614 0.613,-0.818 0,-0.204 -0.307,-0.306 -0.818,-0.306 H -8.074 c -1.074,0 -2.556,-0.205 -3.424,-0.563 l -1.431,1.891 c 1.277,-0.102 2.555,-0.204 3.73,-0.204 h 23.508 l 1.891,2.81 z m -32.043,6.899 c 0.358,-0.256 0.511,-0.46 0.511,-0.613 0,-0.154 -0.153,-0.256 -0.511,-0.409 -1.073,-0.409 -1.226,-0.665 -1.737,-1.891 -1.227,-2.913 -2.709,-6.031 -4.344,-9.148 1.635,-0.46 1.686,-0.46 1.686,-0.664 0,-0.153 -0.102,-0.256 -1.022,-0.92 v -21.157 c 0,-3.169 0.051,-5.979 0.205,-8.279 v -0.307 c 0,-0.613 -0.205,-0.868 -1.38,-1.533 -0.511,-0.306 -0.818,-0.46 -1.073,-0.46 -0.256,0 -0.358,0.307 -0.358,0.971 v 0.716 c 0.153,3.015 0.204,6.337 0.204,8.994 v 19.624 c -2.146,-3.679 -4.548,-7.155 -7.205,-10.221 l -0.614,0.46 c 5.213,7.717 9.557,16.711 12.521,26.932 z"
             style="fill:#221b19;fill-opacity:1;fill-rule:nonzero;stroke:none"
             id="path1138" />
        </g>
        <g
           id="g1140"
           transform="translate(1004.311,637.106)">
          <path
             d="m 0,0 c 4.191,-2.044 8.228,-4.651 8.228,-7.512 0,-1.329 -0.92,-2.453 -1.431,-2.453 -0.613,0 -0.92,0.204 -1.124,1.175 -0.46,2.197 -2.351,5.366 -5.98,8.381 z m -16.558,2.504 c 4.344,-2.146 6.235,-3.782 6.235,-5.621 0,-1.227 -0.92,-2.351 -1.533,-2.351 -0.613,0 -0.971,0.46 -1.022,0.92 -0.256,1.942 -1.124,3.986 -4.037,6.643 z m 12.776,-5.928 c 0,-4.395 0.154,-5.928 1.431,-6.49 0.256,-0.102 0.409,-0.256 0.409,-0.409 0,-0.102 -0.051,-0.256 -0.153,-0.409 -1.635,-2.555 -3.424,-2.657 -10.63,-2.657 -8.381,0 -11.243,0 -11.243,2.759 v 7.717 c 0,1.278 -0.051,3.117 -0.153,3.884 l 3.628,-1.738 c 0.205,-0.102 0.358,-0.204 0.358,-0.357 0,-0.103 -0.102,-0.205 -0.358,-0.358 l -1.175,-0.716 v -7.256 c 0,-1.687 1.584,-1.789 6.592,-1.789 2.862,0 5.724,0.102 7.462,0.256 2.146,0.204 2.861,1.839 3.066,7.614 z m 1.687,15.331 H -25.143 V 5.672 h 23.048 z m 0,7.155 h -23.048 v -6.03 h 23.048 z m 0,6.694 h -23.048 v -5.57 h 23.048 z m 3.884,1.176 c 0.306,-0.205 0.409,-0.409 0.409,-0.614 0,-0.153 -0.051,-0.306 -0.256,-0.459 L 0.307,24.581 V 14.105 c 0,-3.884 0.102,-6.848 0.255,-9.148 V 4.548 C 0.562,3.884 0.409,3.679 -0.613,3.219 -1.124,3.015 -1.431,2.913 -1.635,2.913 c -0.46,0 -0.46,0.153 -0.46,1.635 H -25.143 V 3.271 c 0,-0.665 -0.154,-0.818 -1.124,-1.227 -0.46,-0.204 -0.767,-0.307 -0.971,-0.307 -0.358,0 -0.46,0.307 -0.46,1.125 0,1.431 0.204,8.381 0.204,9.965 v 11.447 c 0,1.176 -0.051,3.476 -0.153,5.009 l 3.015,-2.402 h 6.184 l 2.044,6.796 3.117,-1.379 c 0.256,-0.103 0.409,-0.256 0.409,-0.358 0,-0.102 -0.205,-0.255 -0.562,-0.358 -1.074,-0.306 -2.3,-1.533 -3.986,-4.701 h 14.513 l 1.431,2.248 z m -31.48,-27.596 c -0.562,-7.053 -1.278,-9.25 -3.475,-10.528 -0.511,-0.306 -1.022,-0.409 -1.431,-0.409 -1.278,0 -1.84,0.971 -1.84,1.636 0,0.408 0.204,0.664 0.869,1.073 3.066,1.84 4.19,3.322 5.315,8.33 z"
             style="fill:#221b19;fill-opacity:1;fill-rule:nonzero;stroke:none"
             id="path1142" />
        </g>
        <g
           id="g1144"
           transform="translate(484.2688,673.5475)">
          <path
             d="m 0,0 c 1.095,-3.688 3.689,-7.204 7.204,-7.204 2.421,0 4.611,1.383 4.611,4.553 0,3.055 -1.96,4.553 -4.784,5.706 C 3.4,4.438 0.173,6.34 0.173,9.97 c 0,3.574 3.227,6.859 8.241,6.801 2.075,0 3.458,-0.461 4.496,-0.922 0.403,-1.326 0.922,-4.207 1.094,-5.821 L 13.198,9.682 c -0.98,2.882 -3.112,5.821 -6.052,5.821 -2.823,0 -4.264,-1.959 -4.264,-4.265 0,-2.824 2.824,-4.207 5.129,-5.129 4.034,-1.556 6.858,-3.631 6.858,-7.377 0,-4.61 -4.207,-7.204 -8.645,-7.204 -2.996,0 -5.417,1.037 -6.224,1.902 -0.403,0.922 -0.691,4.438 -0.865,6.282 z"
             style="fill:#221b19;fill-opacity:1;fill-rule:nonzero;stroke:none"
             id="path1146" />
        </g>
        <g
           id="g1148"
           transform="translate(501.5008,666.5165)">
          <path
             d="m 0,0 c 3.688,0.231 4.265,1.037 4.265,4.611 v 26.971 c 0,3.977 -0.461,4.38 -4.15,4.726 V 37 c 2.824,0.345 5.936,1.383 6.916,1.959 V 4.611 C 7.031,1.037 7.55,0.231 11.353,0 V -0.807 H 0 Z"
             style="fill:#221b19;fill-opacity:1;fill-rule:nonzero;stroke:none"
             id="path1150" />
        </g>
        <g
           id="g1152"
           transform="translate(519.6546,679.0225)">
          <path
             d="m 0,0 c 0,-7.377 3.861,-12.621 9.97,-12.621 4.841,0 8.357,3.112 8.357,10.892 0,5.59 -3.4,11.642 -9.797,11.642 C 3.227,9.913 0,5.763 0,0 m 21.842,-0.864 c 0,-8.703 -7.146,-13.083 -12.678,-13.083 -7.608,0 -12.795,5.763 -12.795,12.045 0,9.336 7.838,13.198 12.679,13.198 7.262,0 12.794,-5.475 12.794,-12.16"
             style="fill:#221b19;fill-opacity:1;fill-rule:nonzero;stroke:none"
             id="path1154" />
        </g>
        <g
           id="g1156"
           transform="translate(550.4293,682.5957)">
          <path
             d="m 0,0 c 0,-5.36 2.651,-8.241 6.224,-8.241 2.594,0 5.187,1.844 5.187,6.743 0,5.186 -2.075,8.126 -5.994,8.126 C 2.248,6.57 0,4.322 0,0 m -1.844,-22.937 c 0,-3.631 3.342,-6.571 8.184,-6.571 6.512,0 9.509,3.574 9.509,7.608 0,1.844 -0.922,3.458 -2.421,4.265 -1.613,0.922 -3.573,0.979 -6.743,0.979 -8.241,0 -8.529,-5.302 -8.529,-6.281 M 12.967,4.438 c 1.153,-1.211 1.96,-3.17 1.96,-4.899 0,-6.051 -5.418,-8.933 -9.51,-8.933 -0.576,0 -1.21,0.058 -2.074,0.173 C 1.902,-9.74 0,-10.95 0,-12.16 c 0,-1.095 1.326,-2.133 3.573,-2.133 2.421,0 4.668,0.231 6.858,0.231 3.977,0 8.069,-1.153 8.069,-6.455 0,-5.244 -6.282,-11.008 -13.832,-11.008 -6.339,0 -9.797,3.689 -9.797,7.377 0,1.441 0.576,2.479 1.152,3.343 1.153,1.326 3.804,3.17 5.072,4.207 -2.363,0.519 -5.014,2.536 -4.783,4.957 1.786,0.518 4.495,2.074 5.359,2.996 -2.593,0.865 -5.244,3.631 -5.244,6.974 0,7.838 8.702,11.584 14.465,7.953 2.94,0.23 5.187,0.519 7.723,0.98 L 18.961,6.801 C 18.269,6.051 17.174,4.784 16.367,4.438 Z"
             style="fill:#221b19;fill-opacity:1;fill-rule:nonzero;stroke:none"
             id="path1158" />
        </g>
        <g
           id="g1160"
           transform="translate(585.411,678.9073)">
          <path
             d="m 0,0 c -1.21,-0.691 -4.841,-2.075 -6.109,-2.593 -2.593,-0.98 -4.149,-2.075 -4.149,-4.207 0,-2.997 2.42,-4.554 4.495,-4.554 1.959,0 4.553,1.441 5.763,2.94 z m 3.112,-13.832 c -0.115,0 -1.268,0.461 -1.844,1.038 -0.692,0.749 -0.922,1.44 -1.268,2.708 -2.248,-1.728 -4.841,-3.746 -6.973,-3.746 -3.977,0 -6.686,2.997 -6.686,6.57 0,2.594 1.787,4.438 5.763,5.648 2.94,0.865 6.57,2.248 7.896,3.055 C 0,4.265 -0.058,9.279 -5.244,9.279 -6.167,9.221 -9.279,8.991 -10.258,4.38 -10.374,3.977 -10.719,3.4 -11.526,3.4 c -0.807,0 -1.729,0.807 -1.729,1.96 0,0.864 0.691,1.556 1.613,2.075 1.441,0.979 5.302,3.342 8.126,3.976 2.824,0 6.397,-1.844 6.397,-6.916 V -7.896 c 0,-2.362 0.865,-3.285 2.075,-3.285 0.98,0 1.902,0.346 2.536,0.75 l 0.519,-0.98 z"
             style="fill:#221b19;fill-opacity:1;fill-rule:nonzero;stroke:none"
             id="path1162" />
        </g>
        <g
           id="g1164"
           transform="translate(595.2081,666.5165)">
          <path
             d="m 0,0 c 3.343,0.231 4.265,1.095 4.265,4.553 v 11.584 c 0,3.861 -0.404,4.092 -3.631,4.726 v 0.749 c 2.305,0.576 4.61,1.095 6.397,2.421 v -4.784 c 1.153,0.691 2.593,1.729 4.38,2.939 1.614,0.98 3.054,1.614 4.668,1.614 4.784,0 7.492,-2.939 7.492,-7.492 V 4.841 C 23.571,0.807 24.09,0.231 27.317,0 V -0.807 H 16.194 V 0 c 3.92,0.231 4.611,1.037 4.611,4.841 v 9.452 c 0,3.285 -0.922,6.973 -6.224,6.973 -2.824,0 -5.763,-1.729 -7.55,-3.515 V 4.783 C 7.031,1.095 7.607,0.231 11.584,0 V -0.807 H 0 Z"
             style="fill:#221b19;fill-opacity:1;fill-rule:nonzero;stroke:none"
             id="path1166" />
        </g>
        <g
           id="g1168"
           transform="translate(718.0422,698.9322)">
          <path
             d="m 0,0 c 4.014,-1.265 5.628,-2.4 5.628,-4.232 0,-1.309 -1.09,-2.007 -1.658,-2.007 -0.392,0 -0.654,0.567 -0.829,1.134 -0.48,1.615 -1.788,3.403 -3.359,4.669 z m -5.41,-8.508 c 4.276,-1.745 6.152,-3.708 6.152,-5.017 0,-1.353 -0.916,-2.182 -1.309,-2.182 -0.436,0 -0.916,0.306 -1.091,1.004 -0.349,1.439 -1.876,4.144 -3.927,5.715 z m 28.316,1.745 c 0.218,-0.218 0.305,-0.349 0.305,-0.436 0,-0.087 -0.087,-0.131 -0.349,-0.131 h -35.427 c -0.917,0 -2.182,-0.174 -2.924,-0.48 l -1.221,1.615 c 1.091,-0.088 2.181,-0.175 3.185,-0.175 h 31.501 l 1.658,2.661 z m -0.873,-10.34 c 0.175,-0.174 0.262,-0.262 0.262,-0.349 0,-0.087 -0.131,-0.131 -0.349,-0.131 H -8.726 c -0.087,-15.881 -1.265,-17.67 -8.77,-23.735 l -0.436,0.437 c 5.716,5.933 6.981,8.333 6.981,18.281 0,2.312 -0.087,5.061 -0.174,8.333 l 2.879,-2.356 H 5.716 c 1.658,3.141 2.705,5.279 4.406,8.682 l 2.923,-1.658 c 0.262,-0.13 0.393,-0.261 0.393,-0.305 0,-0.087 -0.174,-0.175 -0.523,-0.262 -1.048,-0.262 -1.746,-0.742 -6.283,-6.457 h 10.689 l 1.615,2.53 z"
             style="fill:#221b19;fill-opacity:1;fill-rule:nonzero;stroke:none"
             id="path1170" />
        </g>
        <path
           d="m 778.339,675.983 h -9.293 v -11.388 h 9.293 z m 3.665,0.654 c 0.174,-0.131 0.262,-0.218 0.262,-0.349 0,-0.087 -0.088,-0.174 -0.262,-0.305 l -1.614,-0.916 v -9.992 c 0,-1.701 0.087,-3.01 0.218,-4.145 v -0.131 c 0,-0.697 -1.92,-1.134 -1.92,-1.134 -0.305,0 -0.349,0.218 -0.349,0.655 v 3.315 h -9.293 v -4.013 c 0,-0.437 -0.131,-0.524 -0.96,-0.83 -0.393,-0.13 -0.654,-0.218 -0.829,-0.218 -0.306,0 -0.393,0.175 -0.393,0.655 v 0.218 c 0.087,1.44 0.131,3.621 0.131,5.017 v 12.304 c 0,0.567 -0.044,1.745 -0.131,2.531 l 2.749,-2.356 h 7.941 l 1.57,2.007 z m -10.035,18.15 h -15.532 v -10.035 h 15.532 z m 3.752,0.698 c 0.218,-0.131 0.306,-0.261 0.306,-0.349 0,-0.087 -0.088,-0.174 -0.306,-0.305 l -1.701,-0.916 v -7.767 c 0,-0.654 0.305,-3.882 0.305,-4.232 0,-0.392 -0.218,-0.567 -1.178,-0.916 -0.349,-0.131 -0.611,-0.174 -0.785,-0.174 -0.306,0 -0.393,0.218 -0.393,0.785 v 2.181 h -15.532 v -2.312 c 0,-0.48 -0.088,-0.611 -0.96,-0.873 -0.393,-0.13 -0.655,-0.174 -0.829,-0.174 -0.305,0 -0.393,0.174 -0.393,0.567 v 0.262 c 0.088,1.44 0.131,3.578 0.131,4.974 v 9.467 c 0,0.568 -0.043,1.746 -0.131,2.531 l 2.792,-2.487 h 14.093 l 1.527,2.094 z m -17.146,-19.59 h -8.464 v -11.3 h 8.464 z m 3.49,0.699 c 0.175,-0.131 0.262,-0.262 0.262,-0.349 0,-0.131 -0.087,-0.219 -0.262,-0.35 l -1.44,-0.785 v -9.598 c 0,-1.702 0.087,-2.88 0.218,-4.014 v -0.131 c 0,-0.393 -0.174,-0.568 -1.09,-0.96 -0.393,-0.175 -0.655,-0.262 -0.829,-0.262 -0.306,0 -0.349,0.218 -0.349,0.698 v 2.792 h -8.465 v -4.057 c 0,-0.437 -0.087,-0.567 -0.96,-0.829 -0.348,-0.131 -0.61,-0.175 -0.785,-0.175 -0.305,0 -0.393,0.218 -0.393,0.611 v 0.262 c 0.088,1.44 0.131,3.447 0.131,4.843 v 12.434 c 0,0.568 -0.043,1.746 -0.131,2.531 l 2.749,-2.4 h 7.199 l 1.309,1.92 z"
           style="fill:#221b19;fill-opacity:1;fill-rule:nonzero;stroke:none"
           id="path1172" />
        <g
           id="g1174"
           transform="translate(793.3914,688.1119)">
          <path
             d="m 0,0 c 0,-0.916 -0.742,-1.745 -1.658,-1.745 -0.872,0 -1.658,0.829 -1.658,1.745 0,1.047 0.786,1.833 1.658,1.833 C -0.654,1.833 0,0.916 0,0 m -5.977,-25.916 c 2.792,0.218 3.228,0.785 3.228,3.316 v 9.075 c 0,2.792 -0.305,3.01 -2.792,3.447 v 0.567 c 1.833,0.392 3.229,0.872 4.887,1.745 V -22.6 c 0,-2.531 0.436,-3.098 3.272,-3.316 v -0.611 h -8.595 z"
             style="fill:#221b19;fill-opacity:1;fill-rule:nonzero;stroke:none"
             id="path1176" />
        </g>
        <g
           id="g1178"
           transform="translate(814.5954,665.5116)">
          <path
             d="m 0,0 c -1.832,-2.443 -4.843,-4.407 -7.461,-4.407 -5.323,0 -8.682,4.189 -8.682,8.421 0,8.115 7.723,10.689 10.82,10.689 1.178,0 4.669,-0.741 4.669,-2.138 0,-0.698 -0.873,-1.527 -1.484,-1.527 -0.174,0 -0.349,0.131 -0.611,0.349 -1.527,1.178 -2.966,1.571 -5.192,1.571 -2.617,0 -5.846,-2.051 -5.846,-7.112 0.044,-6.239 4.494,-8.202 7.33,-8.202 2.094,0 3.621,0.523 5.934,2.967 z"
             style="fill:#221b19;fill-opacity:1;fill-rule:nonzero;stroke:none"
             id="path1180" />
        </g>
        <g
           id="g1182"
           transform="translate(819.7869,671.6633)">
          <path
             d="m 0,0 c 0,-5.585 2.923,-9.555 7.548,-9.555 3.665,0 6.326,2.356 6.326,8.246 0,4.232 -2.574,8.813 -7.417,8.813 C 2.443,7.504 0,4.363 0,0 m 16.536,-0.654 c 0,-6.589 -5.411,-9.904 -9.599,-9.904 -5.759,0 -9.686,4.363 -9.686,9.118 0,7.068 5.934,9.992 9.599,9.992 5.497,0 9.686,-4.145 9.686,-9.206"
             style="fill:#221b19;fill-opacity:1;fill-rule:nonzero;stroke:none"
             id="path1184" />
        </g>
        <g
           id="g1186"
           transform="translate(839.4199,662.1957)">
          <path
             d="m 0,0 c 2.531,0.174 3.229,0.829 3.229,3.447 v 8.769 c 0,2.924 -0.306,3.098 -2.749,3.578 v 0.567 c 1.745,0.437 3.49,0.829 4.843,1.833 v -3.622 c 0.873,0.524 1.963,1.309 3.316,2.226 1.221,0.741 2.312,1.221 3.534,1.221 3.621,0 5.672,-2.225 5.672,-5.672 V 3.665 C 17.845,0.611 18.237,0.174 20.681,0 V -0.611 H 12.26 V 0 c 2.967,0.174 3.49,0.785 3.49,3.665 v 7.155 c 0,2.487 -0.698,5.28 -4.712,5.28 -2.137,0 -4.363,-1.309 -5.715,-2.662 V 3.621 C 5.323,0.829 5.759,0.174 8.77,0 V -0.611 H 0 Z"
             style="fill:#221b19;fill-opacity:1;fill-rule:nonzero;stroke:none"
             id="path1188" />
        </g>
      </g>
    </g>
    <text
       xml:space="preserve"
       style="font-style:normal;font-weight:normal;font-size:10.5833px;line-height:1.25;font-family:sans-serif;fill:#000000;fill-opacity:1;stroke:none;stroke-width:0.264583"
       x="10.925903"
       y="299.71484"
       id="text6346"><tspan
         sodipodi:role="line"
         id="tspan6344"
         style="stroke-width:0.264583"
         x="10.925903"
         y="299.71484">A</tspan></text>
    <text
       xml:space="preserve"
       style="font-style:normal;font-weight:normal;font-size:10.5833px;line-height:1.25;font-family:sans-serif;fill:#000000;fill-opacity:1;stroke:none;stroke-width:0.264583"
       x="62.085121"
       y="299.61371"
       id="text8012"><tspan
         sodipodi:role="line"
         style="stroke-width:0.264583"
         x="62.085121"
         y="299.61371"
         id="tspan8014">B</tspan></text>
    <text
       xml:space="preserve"
       style="font-style:normal;font-weight:normal;font-size:10.5833px;line-height:1.25;font-family:sans-serif;fill:#000000;fill-opacity:1;stroke:none;stroke-width:0.264583"
       x="36.552795"
       y="285.66116"
       id="text8790"><tspan
         sodipodi:role="line"
         id="tspan8788"
         style="stroke-width:0.264583"
         x="36.552795"
         y="285.66116">C</tspan></text>
    <text
       xml:space="preserve"
       style="font-style:normal;font-weight:normal;font-size:10.5833px;line-height:1.25;font-family:sans-serif;fill:#000000;fill-opacity:1;stroke:none;stroke-width:0.264583"
       x="71.629745"
       y="249.46571"
       id="text9938"><tspan
         sodipodi:role="line"
         id="tspan9936"
         style="stroke-width:0.264583"
         x="71.629745"
         y="249.46571">D</tspan><tspan
         sodipodi:role="line"
         style="stroke-width:0.264583"
         x="71.629745"
         y="262.69482"
         id="tspan9940" /></text>
  </g>
</svg>
